<?xml version="1.0" standalone="no"?>
<!DOCTYPE svg PUBLIC "-//W3C//DTD SVG 20010904//EN"
 "http://www.w3.org/TR/2001/REC-SVG-20010904/DTD/svg10.dtd">
<svg version="1.0" xmlns="http://www.w3.org/2000/svg"
 width="175.000000pt" height="150.000000pt" viewBox="0 0 175.000000 150.000000"
 preserveAspectRatio="xMidYMid meet">
<metadata>
Created by potrace 1.10, written by Peter Selinger 2001-2011
</metadata>
<g transform="translate(0.000000,150.000000) scale(0.100000,-0.100000)"
fill="#f50202" stroke="none">
<path d="M975 1371 c-43 -11 -96 -39 -127 -68 -16 -15 -42 -27 -63 -29 l-37
-3 16 24 c10 16 12 25 5 25 -21 0 -65 -32 -85 -62 -10 -16 -41 -41 -68 -55
-67 -34 -156 -126 -189 -194 -90 -183 -26 -393 157 -511 74 -47 100 -51 29 -3
-63 43 -114 103 -150 181 -25 52 -28 70 -28 159 1 89 4 106 30 160 28 58 149
194 162 182 3 -4 -18 -32 -47 -64 -87 -94 -137 -186 -94 -169 13 5 15 1 10
-20 -6 -22 -4 -26 11 -22 10 3 24 7 32 9 7 2 21 -9 31 -26 15 -26 16 -33 4
-57 -18 -34 -17 -38 1 -38 11 0 15 -11 15 -42 0 -23 10 -62 22 -87 l22 -46 9
45 c5 25 15 52 23 60 12 12 14 10 15 -15 1 -32 28 -86 46 -92 7 -3 13 9 15 28
2 18 9 34 16 37 18 6 15 -49 -4 -76 -16 -23 -58 -30 -69 -12 -3 6 -13 10 -20
10 -12 0 -10 -8 6 -39 34 -66 110 -78 159 -25 13 13 26 24 30 24 3 0 14 -16
23 -35 28 -59 94 -122 144 -139 70 -24 168 -21 229 8 54 25 85 64 42 52 -13
-3 -34 -8 -48 -11 -25 -6 -25 -6 3 10 15 8 28 21 28 28 1 7 2 17 3 22 0 6 22
31 47 58 55 57 97 138 112 218 29 161 -72 349 -233 432 -55 28 -51 24 24 -30
47 -34 108 -112 138 -178 19 -42 23 -68 23 -155 0 -99 -2 -109 -32 -170 -41
-83 -78 -127 -146 -174 l-55 -38 -43 20 c-24 10 -52 28 -62 40 -20 22 -28 18
72 38 16 3 46 20 66 37 32 28 38 40 42 84 5 44 1 59 -22 99 -16 26 -39 58 -52
70 l-24 22 37 22 c84 52 98 143 38 240 -43 70 -81 89 -192 97 -70 6 -72 7 -56
24 10 11 23 19 31 19 7 0 13 4 13 9 0 6 14 18 30 28 41 24 38 37 -7 30 l-38
-6 30 24 30 25 -25 -1 c-14 -1 -38 -4 -55 -8z m-186 -151 c-13 -16 -24 -28
-26 -26 -8 8 21 56 34 56 10 0 7 -9 -8 -30z m-49 -104 c0 -16 -54 -41 -69 -31
-19 11 -12 20 22 32 45 15 47 15 47 -1z m333 -59 c-29 -53 -73 -64 -73 -19 0
40 16 52 51 40 17 -6 26 -15 22 -21z m-8 -318 c14 -14 -39 -63 -59 -56 -16 6
-23 57 -9 71 9 8 54 -1 68 -15z"/>
<path d="M457 367 c-8 -12 -27 -35 -43 -50 l-28 -29 24 -19 c14 -10 35 -22 48
-25 26 -7 55 13 48 33 -4 8 4 17 19 23 33 12 32 34 -2 58 -47 32 -50 32 -66 9z
m57 -26 c9 -15 -18 -31 -34 -20 -13 8 -13 10 0 19 19 12 27 12 34 1z m-38 -42
c9 -16 -12 -33 -31 -25 -14 5 -15 9 -5 21 15 18 26 19 36 4z"/>
<path d="M1335 375 c-61 -28 -61 -29 -15 -84 24 -28 47 -51 51 -51 5 0 23 13
40 28 36 32 33 46 -18 94 -26 25 -30 26 -58 13z m40 -42 c28 -31 33 -53 11
-53 -16 0 -68 65 -59 74 11 11 22 6 48 -21z"/>
<path d="M575 301 c-3 -11 -17 -36 -30 -56 l-25 -36 46 -20 c26 -11 48 -18 49
-17 30 37 20 74 -11 43 -31 -31 -38 0 -11 49 14 24 22 47 19 50 -12 12 -31 5
-37 -13z"/>
<path d="M1210 313 c-8 -3 -25 -10 -37 -14 l-23 -8 25 -37 c14 -21 28 -48 31
-61 7 -26 13 -28 38 -10 16 12 16 14 2 26 -9 8 -16 17 -16 22 0 17 28 9 42
-13 11 -16 18 -19 31 -11 16 8 16 11 -7 36 -13 14 -26 37 -28 49 -3 23 -28 32
-58 21z m30 -39 c0 -16 -26 -19 -35 -4 -3 6 -4 14 0 20 8 13 35 1 35 -16z"/>
<path d="M690 257 c0 -12 -9 -39 -19 -60 -10 -20 -15 -37 -11 -37 5 0 15 -3
23 -6 11 -4 16 5 22 32 3 21 13 47 21 58 20 29 18 36 -11 36 -19 0 -25 -5 -25
-23z"/>
<path d="M1073 272 c-21 -3 -23 -9 -23 -68 0 -58 2 -64 21 -64 16 0 19 4 14
20 -5 16 -2 20 14 20 12 0 21 -7 21 -15 0 -16 9 -19 34 -9 13 5 12 13 -11 53
-34 59 -43 68 -70 63z m27 -53 c10 -18 9 -20 -7 -17 -10 2 -19 11 -21 21 -5
24 15 21 28 -4z"/>
<path d="M760 243 c0 -27 15 -31 24 -6 5 12 10 13 18 5 8 -8 1 -22 -27 -53
-35 -39 -37 -43 -19 -50 10 -4 36 -8 57 -8 34 -1 37 1 37 26 0 25 -1 25 -18
10 -19 -17 -42 -23 -42 -10 0 4 19 26 42 50 45 46 44 49 -29 55 -39 3 -43 1
-43 -19z"/>
<path d="M924 253 c-26 -3 -31 -8 -27 -24 6 -23 19 -25 27 -4 6 17 26 21 26 5
0 -5 -11 -26 -25 -46 -36 -54 -33 -60 30 -56 44 3 55 7 55 21 0 29 -13 33 -31
10 -9 -12 -21 -19 -28 -15 -7 5 -2 21 19 51 45 66 43 69 -46 58z"/>
</g>
</svg>
