<?xml version="1.0" standalone="no"?>
<!DOCTYPE svg PUBLIC "-//W3C//DTD SVG 20010904//EN"
 "http://www.w3.org/TR/2001/REC-SVG-20010904/DTD/svg10.dtd">
<svg version="1.0" xmlns="http://www.w3.org/2000/svg"
 width="175.000000pt" height="150.000000pt" viewBox="0 0 175.000000 150.000000"
 preserveAspectRatio="xMidYMid meet">
<metadata>
Created by potrace 1.10, written by Peter Selinger 2001-2011
</metadata>
<g transform="translate(0.000000,150.000000) scale(0.100000,-0.100000)"
fill="#525151" stroke="none">
<path d="M954 1369 c-44 -12 -130 -72 -126 -88 2 -8 -4 -10 -17 -6 -29 9 -71
-15 -77 -44 -3 -14 -7 -34 -9 -43 -6 -34 20 -17 40 25 12 25 27 42 37 42 9 0
26 10 37 22 26 27 119 75 140 71 24 -3 71 11 71 22 0 12 -54 12 -96 -1z"/>
<path d="M1008 1333 c-26 -4 -118 -93 -118 -114 0 -13 52 9 76 32 18 17 27 18
60 11 21 -6 48 -13 58 -18 13 -5 17 -4 12 4 -4 6 -26 17 -49 23 -37 10 -40 13
-23 23 10 6 28 19 40 28 l21 17 -25 -1 c-14 0 -37 -3 -52 -5z m-18 -26 c0 -2
-12 -14 -27 -28 l-28 -24 24 28 c23 25 31 32 31 24z"/>
<path d="M722 1301 c-22 -17 -43 -39 -47 -50 -3 -11 -30 -34 -59 -50 -78 -45
-150 -121 -188 -198 -31 -63 -33 -74 -33 -168 1 -88 4 -107 28 -155 32 -68 85
-131 140 -169 59 -40 157 -92 157 -83 0 4 -28 23 -62 42 -81 44 -150 117 -191
199 -30 61 -32 73 -32 166 0 90 3 106 29 160 28 56 97 134 186 210 19 17 42
41 50 54 9 13 25 24 36 25 23 1 57 30 47 40 -11 10 -18 7 -61 -23z"/>
<path d="M635 1290 c-13 -5 -14 -9 -5 -9 8 0 24 4 35 9 13 5 14 9 5 9 -8 0
-24 -4 -35 -9z"/>
<path d="M548 1254 c-39 -21 -35 -28 5 -8 37 19 44 24 31 24 -5 -1 -21 -8 -36
-16z"/>
<path d="M588 1231 c-80 -41 -143 -96 -187 -166 -44 -68 -57 -105 -66 -186 -9
-72 14 -165 55 -225 17 -24 27 -44 23 -44 -16 0 108 -106 157 -133 68 -38 63
-28 -8 16 -92 57 -167 156 -197 261 -50 171 41 363 212 454 34 18 65 37 68 42
9 14 7 13 -57 -19z"/>
<path d="M1120 1245 c0 -2 15 -12 33 -21 101 -51 195 -154 229 -253 16 -45 19
-75 16 -156 -3 -88 -7 -106 -33 -154 -39 -70 -106 -145 -160 -176 -40 -24 -44
-25 -79 -10 -20 9 -45 24 -56 35 -11 11 -26 20 -32 20 -22 0 50 -58 87 -70 41
-14 91 1 157 47 88 60 167 211 168 319 0 136 -79 275 -205 358 -54 36 -125 71
-125 61z"/>
<path d="M787 1220 c-9 -13 -15 -26 -12 -28 7 -8 37 28 33 40 -3 7 -11 2 -21
-12z"/>
<path d="M974 1229 c-25 -9 -8 -15 66 -24 74 -8 92 -11 112 -20 27 -11 68 -82
74 -129 6 -41 4 -47 -36 -90 -30 -32 -57 -50 -89 -60 l-46 -13 33 -7 c24 -6
43 -22 73 -63 55 -74 66 -114 42 -156 -22 -39 -99 -79 -153 -81 -22 0 -40 -2
-40 -4 0 -1 9 -12 19 -23 18 -19 24 -20 71 -10 91 20 140 71 140 147 0 45 -35
118 -72 149 l-27 23 36 23 c20 13 45 36 56 50 25 35 26 114 1 159 -11 18 -25
44 -33 57 -24 44 -174 92 -227 72z m235 -282 c-2 -1 -15 -11 -29 -22 l-25 -20
19 23 c11 12 24 22 29 22 6 0 8 -1 6 -3z m2 -315 c-5 -10 -18 -25 -27 -33 -11
-9 -9 -2 6 19 26 35 36 42 21 14z m-66 -42 c-3 -5 -12 -10 -18 -10 -7 0 -6 4
3 10 19 12 23 12 15 0z"/>
<path d="M454 1178 l-19 -23 23 19 c21 18 27 26 19 26 -2 0 -12 -10 -23 -22z"/>
<path d="M571 1105 c-61 -65 -101 -129 -101 -161 0 -13 3 -14 15 -4 8 7 13 16
10 20 -3 4 4 19 15 33 11 14 20 29 20 35 0 5 19 27 43 49 35 32 76 93 63 93
-2 0 -31 -29 -65 -65z"/>
<path d="M411 1146 c-8 -10 -9 -16 -1 -21 5 -3 10 -5 11 -3 4 18 7 38 4 38 -1
0 -8 -6 -14 -14z"/>
<path d="M695 1128 c-46 -16 -57 -28 -44 -44 6 -8 22 -14 35 -14 29 0 80 42
70 58 -9 14 -21 14 -61 0z m49 -12 c-7 -18 -59 -40 -73 -31 -19 11 -12 20 22
32 46 15 57 15 51 -1z"/>
<path d="M1246 1130 c4 -8 20 -33 35 -55 41 -58 69 -148 69 -221 0 -128 -57
-241 -162 -324 -27 -22 -43 -40 -36 -40 8 0 41 24 74 54 139 126 182 312 106
467 -17 35 -45 80 -62 99 -18 19 -28 28 -24 20z"/>
<path d="M987 1123 c-3 -4 -8 -30 -12 -56 -6 -40 -4 -50 11 -62 27 -20 38 -18
74 11 36 31 37 59 0 85 -31 22 -67 32 -73 22z m81 -52 c9 -5 6 -14 -12 -34
-32 -34 -56 -35 -56 -3 0 54 17 64 68 37z"/>
<path d="M512 950 c-21 -23 -30 -60 -14 -60 4 0 15 7 26 15 15 11 21 11 31 2
22 -23 27 -55 11 -85 -14 -28 -14 -30 3 -35 14 -3 17 -11 14 -34 -5 -29 44
-150 55 -138 3 2 6 20 7 40 2 31 11 55 47 128 16 32 -1 32 -32 2 -19 -19 -33
-43 -37 -68 -5 -32 -8 -36 -16 -22 -5 10 -7 35 -4 56 3 22 1 41 -3 44 -5 3 -8
27 -6 53 2 37 6 48 22 51 25 4 45 21 38 32 -3 5 -15 2 -27 -6 -35 -24 -62 -19
-78 17 l-15 31 -22 -23z"/>
<path d="M1323 870 c0 -25 2 -35 4 -22 2 12 2 32 0 45 -2 12 -4 2 -4 -23z"/>
<path d="M967 794 c-8 -9 2 -82 15 -107 7 -13 19 -17 41 -15 57 5 76 57 35 95
-24 22 -79 38 -91 27z m97 -54 c9 -9 -36 -60 -53 -60 -14 0 -25 45 -17 66 5
12 13 14 34 9 15 -3 31 -10 36 -15z"/>
<path d="M679 708 c-4 -19 1 -38 18 -63 30 -44 43 -44 43 0 0 26 4 35 16 35
13 0 15 -7 9 -37 -12 -64 -38 -79 -84 -47 -32 23 -47 4 -21 -26 11 -13 20 -27
20 -31 0 -13 56 -39 85 -39 15 0 40 14 61 33 34 31 35 33 21 60 -14 27 -15 28
-22 8 -13 -42 -77 -71 -119 -55 -26 10 -18 27 8 20 19 -5 30 1 50 25 33 39 33
79 2 109 -32 29 -60 21 -53 -16 3 -15 0 -23 -7 -21 -6 2 -13 19 -16 38 -6 33
-6 34 -11 7z"/>
<path d="M870 550 c0 -20 49 -88 87 -119 l38 -31 -35 1 c-19 0 -75 6 -125 13
-49 8 -94 10 -98 6 -15 -14 240 -41 403 -44 89 -1 150 19 174 57 17 26 3 28
-44 5 -36 -18 -62 -22 -145 -23 -126 0 -163 16 -212 92 -33 53 -43 62 -43 43z"/>
<path d="M1257 469 c-16 -16 -24 -29 -18 -29 16 0 65 46 55 52 -5 3 -22 -7
-37 -23z"/>
<path d="M450 376 c-5 -13 -24 -40 -43 -58 l-34 -35 48 -27 c40 -22 52 -25 70
-16 16 9 19 18 15 36 -5 20 -3 24 18 24 19 0 36 16 36 35 0 5 -87 65 -95 65
-3 0 -10 -11 -15 -24z m26 -22 c-4 -12 -1 -14 13 -9 24 7 35 -9 17 -24 -11 -9
-18 -8 -30 4 -13 14 -13 45 1 45 3 0 2 -7 -1 -16z m-3 -75 c-7 -7 -19 -8 -30
-4 -10 5 -21 7 -25 7 -13 -3 -9 10 8 29 15 17 17 17 37 -2 15 -14 18 -22 10
-30z"/>
<path d="M430 300 c0 -5 5 -10 10 -10 6 0 10 5 10 10 0 6 -4 10 -10 10 -5 0
-10 -4 -10 -10z"/>
<path d="M1310 368 c-19 -12 -36 -23 -38 -24 -2 -1 15 -21 37 -44 23 -23 41
-49 41 -56 0 -23 23 -16 65 20 l39 34 -37 46 c-43 52 -57 55 -107 24z m80 -23
c13 -14 21 -25 18 -25 -2 0 -15 11 -28 25 -13 14 -21 25 -18 25 2 0 15 -11 28
-25z m-12 -18 c12 -11 22 -26 22 -34 0 -23 -25 -14 -43 17 -10 17 -23 30 -28
30 -6 0 -7 5 -4 10 7 12 20 6 53 -23z m-39 -31 c-2 -2 -13 8 -23 22 l-19 27
24 -22 c12 -12 21 -24 18 -27z"/>
<path d="M560 289 c-8 -23 -23 -50 -34 -60 -23 -22 -25 -20 41 -46 l52 -22 16
31 c18 38 18 35 -1 42 -11 4 -22 -1 -31 -14 -8 -11 -19 -18 -24 -15 -10 7 13
58 39 88 18 20 16 23 -19 32 -23 6 -27 2 -39 -36z m5 -49 c-9 -16 -18 -30 -21
-30 -2 0 2 14 11 30 9 17 18 30 21 30 2 0 -2 -13 -11 -30z"/>
<path d="M1215 320 c-11 -4 -33 -13 -49 -19 l-29 -12 21 -20 c12 -11 22 -24
22 -28 0 -5 7 -25 15 -45 14 -33 17 -35 40 -24 29 13 31 21 10 38 -19 15 -19
30 -2 30 8 0 19 -11 25 -25 9 -19 16 -23 32 -17 12 4 20 12 19 17 -5 21 -25
45 -37 45 -9 0 -12 6 -8 16 4 10 -1 25 -10 35 -19 21 -20 21 -49 9z m20 -40
c3 -5 -3 -18 -14 -29 -20 -20 -21 -20 -31 -1 -15 28 -12 36 6 14 15 -18 15
-18 9 4 -5 16 -2 22 9 22 8 0 17 -4 21 -10z"/>
<path d="M682 243 c-7 -26 -20 -56 -29 -65 -20 -22 -17 -26 22 -30 21 -2 30 1
31 12 2 33 25 99 37 103 16 6 7 14 -23 22 -24 6 -27 2 -38 -42z"/>
<path d="M1075 278 c-31 -10 -31 -10 -29 -76 3 -62 5 -67 25 -67 12 0 24 6 27
14 3 9 0 12 -9 9 -11 -4 -14 6 -16 38 -2 42 8 56 22 34 4 -6 11 -8 16 -5 5 3
6 -1 3 -9 -3 -9 -12 -16 -20 -16 -8 0 -14 -4 -14 -10 0 -5 9 -10 20 -10 14 0
20 -7 20 -21 0 -15 4 -19 16 -15 9 3 22 6 30 6 8 0 14 7 14 15 0 8 -4 15 -8
15 -5 0 -21 25 -36 55 -14 30 -28 55 -29 54 -1 -1 -16 -5 -32 -11z m65 -93
c14 -19 14 -19 -2 -6 -10 7 -18 18 -18 24 0 6 1 8 3 6 1 -2 9 -13 17 -24z"/>
<path d="M760 261 c0 -5 -3 -16 -6 -25 -4 -11 -1 -16 10 -16 9 0 16 5 16 10 0
6 9 10 21 10 18 0 13 -7 -25 -43 -53 -50 -57 -67 -18 -67 15 0 44 -3 65 -6 36
-6 37 -6 37 25 0 33 -23 44 -34 16 -7 -18 -36 -20 -36 -2 0 8 -3 7 -10 -3 -5
-8 -11 -12 -15 -9 -3 3 5 14 17 25 12 10 18 13 14 7 -4 -7 -3 -13 1 -13 13 0
73 64 73 77 0 6 -17 13 -37 17 -53 8 -73 7 -73 -3z m71 -44 c-10 -9 -11 -8 -5
6 3 10 9 15 12 12 3 -3 0 -11 -7 -18z"/>
<path d="M890 230 c0 -21 4 -28 14 -24 8 3 17 12 20 20 3 8 10 14 16 14 18 0
10 -24 -20 -60 -45 -52 -40 -60 34 -60 l63 0 -1 30 c-1 21 -6 30 -18 30 -10 0
-18 -6 -18 -14 0 -15 -21 -26 -51 -26 -11 0 -17 5 -14 10 4 6 10 8 14 6 14 -9
81 74 81 98 0 3 -27 6 -60 6 -60 0 -60 0 -60 -30z m81 -13 c-10 -9 -11 -8 -5
6 3 10 9 15 12 12 3 -3 0 -11 -7 -18z"/>
</g>
</svg>
