<?xml version="1.0" standalone="no"?>
<!DOCTYPE svg PUBLIC "-//W3C//DTD SVG 20010904//EN"
 "http://www.w3.org/TR/2001/REC-SVG-20010904/DTD/svg10.dtd">
<svg version="1.0" xmlns="http://www.w3.org/2000/svg"
  width="175.000000pt" height="150.000000pt" viewBox="0 0 525.000000 450.000000"
 preserveAspectRatio="xMidYMid meet">
<metadata>
Created by potrace 1.10, written by Peter Selinger 2001-2011
</metadata>
<g transform="translate(0.000000,450.000000) scale(0.100000,-0.100000)"
fill="#0e128d" stroke="none">
<path d="M2390 3905 c-19 -7 -45 -14 -57 -14 -12 -1 -39 -8 -60 -17 -83 -35
-100 -43 -138 -60 -75 -35 -190 -119 -266 -194 -73 -72 -199 -229 -199 -248 0
-5 -7 -15 -15 -22 -8 -7 -15 -20 -15 -30 0 -10 -7 -20 -15 -24 -8 -3 -15 -14
-15 -24 0 -11 -7 -25 -15 -32 -8 -7 -15 -20 -15 -29 0 -9 -7 -25 -15 -35 -8
-11 -15 -29 -15 -40 0 -12 -7 -30 -15 -40 -8 -11 -15 -32 -15 -47 0 -15 -7
-40 -15 -55 -18 -34 -19 -60 -4 -70 15 -9 29 15 29 52 0 18 6 34 14 37 8 3 17
24 21 46 4 23 11 41 15 41 5 0 12 10 15 23 6 21 61 135 89 184 7 13 20 31 29
41 10 10 17 23 17 29 0 19 198 243 215 243 6 0 22 12 36 26 25 28 135 104 148
104 5 0 14 7 21 15 7 8 23 15 35 15 13 0 25 7 29 15 3 9 18 15 35 15 18 0 34
7 39 17 7 12 18 14 40 10 21 -4 37 -1 54 12 21 16 43 18 214 17 169 -1 194 -3
212 -19 16 -14 24 -16 47 -7 27 10 44 2 45 -22 0 -5 15 -8 34 -8 18 0 39 -7
46 -15 7 -8 19 -15 27 -15 8 0 41 -19 75 -42 33 -24 68 -47 76 -53 38 -24 62
-46 154 -135 54 -52 98 -99 98 -105 0 -7 14 -29 32 -49 35 -42 37 -44 91 -146
20 -39 37 -77 37 -84 0 -7 9 -21 20 -31 11 -10 17 -22 14 -27 -3 -5 1 -19 9
-32 9 -12 20 -42 27 -64 6 -25 17 -42 25 -42 20 0 20 50 0 76 -8 10 -15 31
-15 46 0 15 -7 33 -15 42 -8 8 -15 23 -15 33 0 11 -7 28 -15 39 -8 10 -15 26
-15 35 0 9 -7 22 -15 29 -8 7 -15 21 -15 32 0 10 -7 21 -15 24 -8 4 -15 13
-15 21 0 8 -13 32 -30 53 -16 21 -30 43 -30 49 0 7 -7 14 -15 17 -8 4 -15 10
-15 16 0 11 -73 91 -139 152 -24 23 -52 49 -62 59 -11 9 -23 17 -28 17 -5 0
-11 3 -13 8 -11 24 -221 142 -255 142 -10 0 -27 7 -37 15 -11 8 -31 15 -45 15
-14 0 -44 7 -66 15 -54 19 -354 19 -405 0z"/>
<path d="M1447 3742 c-10 -10 -17 -22 -17 -27 0 -4 -20 -49 -44 -99 -114 -236
-186 -494 -200 -721 -6 -96 1 -114 38 -97 21 9 26 19 26 47 0 76 40 296 77
425 33 115 96 270 135 328 23 35 28 54 28 103 0 64 -12 75 -43 41z"/>
<path d="M3675 3684 c-5 -38 -3 -52 12 -73 10 -14 33 -55 50 -91 89 -190 138
-358 169 -590 13 -99 21 -129 37 -143 48 -42 55 35 21 238 -36 214 -108 436
-196 602 -16 29 -28 59 -28 67 0 15 -29 36 -48 36 -5 0 -13 -21 -17 -46z"/>
<path d="M1497 3548 c-48 -100 -67 -144 -67 -157 0 -6 -6 -25 -14 -43 -31 -73
-71 -236 -92 -375 -16 -105 -15 -143 3 -143 24 1 37 26 49 101 24 146 34 197
44 224 6 15 10 35 10 47 0 11 6 34 13 51 8 18 22 59 33 92 21 68 88 210 104
220 5 3 10 17 10 31 0 20 -5 24 -29 24 -27 0 -33 -7 -64 -72z"/>
<path d="M3560 3604 c0 -8 11 -30 24 -47 42 -57 108 -213 141 -332 9 -33 23
-82 31 -109 7 -26 14 -60 14 -75 0 -14 5 -44 11 -66 7 -22 14 -74 18 -115 5
-68 8 -75 29 -78 39 -6 39 10 2 258 -10 64 -14 79 -43 175 -8 28 -18 65 -22
82 -4 18 -11 35 -16 38 -5 4 -9 13 -9 22 0 14 -9 37 -47 123 -38 84 -49 106
-62 123 -18 22 -71 23 -71 1z"/>
<path d="M2435 3571 c-152 -32 -272 -98 -394 -215 -92 -89 -149 -168 -201
-276 -11 -25 -28 -58 -35 -73 -8 -16 -15 -38 -15 -49 0 -17 4 -19 23 -13 76
25 149 11 205 -39 l23 -20 44 51 c25 28 65 61 90 73 39 19 56 21 113 16 80 -8
97 -8 231 1 121 9 539 -9 591 -26 19 -6 48 -11 65 -11 16 0 67 -10 113 -21 55
-14 87 -18 93 -12 11 11 -63 163 -127 259 -57 85 -185 207 -272 258 -180 105
-358 136 -547 97z m-29 -146 c4 -9 1 -28 -5 -43 -6 -15 -12 -82 -13 -149 -1
-121 -2 -122 -26 -128 -14 -3 -29 -2 -35 4 -6 6 -17 7 -26 2 -32 -17 -113 -23
-122 -10 -10 16 -2 102 19 213 13 73 20 90 39 99 30 13 57 2 48 -21 -13 -34
-35 -196 -28 -203 5 -5 20 -10 33 -11 25 -3 25 -3 35 120 10 126 16 141 58
142 10 0 20 -7 23 -15z m179 -1 c23 -24 16 -68 -13 -72 -13 -2 -25 3 -28 12
-10 25 -32 19 -49 -14 -23 -44 -20 -125 6 -151 16 -16 23 -18 35 -8 18 15 18
48 0 55 -18 7 -27 29 -20 49 7 17 79 21 104 5 13 -8 13 -17 -2 -74 -10 -36
-25 -77 -33 -90 -35 -53 -116 -40 -147 24 -24 46 -25 191 -3 210 8 7 15 17 15
23 0 6 7 19 17 29 21 23 95 25 118 2z m125 -106 c5 -116 15 -148 41 -133 9 6
10 39 5 131 -6 105 -5 124 8 124 38 0 46 -12 46 -66 0 -29 5 -85 12 -124 10
-60 10 -74 -5 -104 -12 -27 -24 -36 -51 -41 -71 -14 -116 32 -116 118 0 27 -5
80 -11 118 -13 88 -9 101 33 97 l33 -3 5 -117z m238 74 c17 -22 11 -35 -19
-42 -31 -8 -31 -31 1 -47 25 -12 48 -55 32 -61 -5 -1 -18 -9 -28 -17 -15 -11
-17 -17 -8 -32 6 -10 22 -18 35 -18 21 0 24 -6 27 -44 l3 -44 -57 7 c-31 3
-61 9 -66 12 -4 3 -6 27 -2 52 3 29 0 73 -10 115 -9 38 -16 86 -16 109 l0 40
48 -7 c26 -3 53 -14 60 -23z m-808 -124 c0 -42 -10 -78 -21 -78 -10 0 -12 70
-3 94 10 27 24 18 24 -16z m927 -13 c41 -21 111 -101 119 -138 9 -41 -15 -57
-82 -57 -59 0 -82 17 -35 26 17 4 31 11 31 16 0 15 -29 21 -44 9 -7 -6 -16 -8
-19 -4 -11 11 -8 52 5 73 10 16 10 24 0 40 -11 18 -17 50 -9 50 2 0 17 -7 34
-15z m-961 -81 c3 -19 4 -55 0 -80 -4 -36 -3 -44 10 -44 8 0 12 -5 8 -11 -3
-6 -17 -8 -31 -4 -21 5 -24 3 -19 -11 4 -12 2 -15 -9 -10 -8 3 -40 0 -70 -6
-39 -8 -59 -8 -67 0 -7 7 -4 12 10 16 13 5 18 13 15 25 -5 20 32 101 47 101 5
0 17 14 27 30 12 22 25 30 45 30 23 0 28 -5 34 -36z m1124 -130 c0 -2 -11 -4
-25 -4 -14 0 -25 4 -25 9 0 4 11 6 25 3 14 -2 25 -6 25 -8z"/>
<path d="M3060 3156 c0 -8 5 -18 10 -21 6 -3 10 1 10 9 0 8 -4 18 -10 21 -5 3
-10 -1 -10 -9z"/>
<path d="M2191 2947 c-41 -21 -83 -62 -124 -122 l-19 -26 -41 39 c-50 45 -118
68 -180 58 -23 -4 -71 -11 -107 -16 -63 -9 -132 -29 -146 -43 -4 -4 -23 -7
-43 -7 -54 -1 -121 -18 -152 -40 -15 -11 -40 -20 -56 -20 -16 0 -53 -7 -83
-15 -30 -9 -75 -20 -100 -26 -24 -5 -49 -14 -54 -19 -6 -6 -23 -10 -39 -10
-29 0 -97 -55 -97 -79 0 -9 62 -62 119 -101 26 -17 25 -50 -4 -185 -9 -44 -23
-114 -30 -155 -7 -41 -16 -90 -20 -107 -5 -24 -3 -40 10 -59 16 -25 21 -26 72
-21 30 3 60 11 68 17 7 6 34 13 60 15 25 3 56 10 67 16 12 6 47 15 77 20 31 4
97 15 146 23 50 9 124 21 165 26 199 26 261 57 344 175 l18 27 20 -34 c69
-115 194 -142 295 -64 44 34 48 36 55 17 12 -34 42 -41 186 -41 126 0 141 2
157 20 23 26 31 25 58 -5 19 -21 31 -25 101 -27 72 -2 80 -1 98 22 19 23 19
35 13 251 l-8 227 32 16 c17 9 32 22 33 29 0 6 2 17 3 22 2 6 3 17 4 25 1 10
10 5 27 -15 61 -74 60 -46 20 -365 -8 -63 -17 -123 -21 -132 -11 -28 16 -77
50 -88 16 -6 56 -14 88 -17 54 -5 60 -4 87 22 l29 28 6 -26 c8 -32 56 -52 145
-61 36 -4 86 -12 112 -18 42 -10 50 -9 68 7 19 18 21 17 44 -8 23 -24 80 -47
121 -47 11 0 40 -7 64 -16 27 -9 59 -13 81 -9 29 5 40 2 55 -14 10 -12 24 -21
30 -21 7 0 26 -7 41 -15 38 -20 50 -19 74 5 25 25 29 135 5 166 -8 10 -15 37
-15 60 0 22 -7 49 -15 60 -8 10 -15 38 -15 60 0 24 -6 47 -15 54 -9 7 -15 29
-15 52 0 22 -7 46 -15 54 -8 9 -15 30 -15 47 0 18 -7 41 -15 51 -8 11 -15 32
-15 47 0 38 -54 80 -130 103 -58 18 -62 18 -80 1 -17 -16 -20 -32 -21 -119 l0
-101 -18 50 c-16 46 -25 76 -51 173 -10 40 -53 82 -83 82 -12 1 -33 7 -47 15
-14 8 -39 14 -56 15 -52 0 -64 -30 -65 -162 -1 -150 -9 -168 -32 -65 -10 45
-25 103 -33 129 -8 26 -14 56 -14 66 0 11 -13 33 -28 50 -24 26 -38 31 -98 37
-38 3 -89 10 -114 16 -49 11 -158 25 -290 39 -47 5 -171 9 -277 9 l-192 1 -20
-26 -21 -26 -44 26 c-56 33 -115 34 -175 3z m486 -28 c92 0 213 -6 268 -13 54
-7 107 -11 116 -9 9 3 45 -2 80 -11 35 -9 96 -20 136 -26 106 -15 119 -23 127
-81 4 -26 11 -51 16 -54 6 -3 10 -17 10 -29 0 -13 7 -46 14 -72 24 -79 43
-153 68 -258 13 -55 28 -101 34 -103 9 -3 24 232 29 459 1 25 7 53 13 61 11
13 17 13 40 1 15 -8 36 -14 47 -14 42 -1 53 -20 95 -175 6 -22 18 -62 26 -90
29 -99 52 -192 59 -236 8 -52 20 -77 32 -65 4 4 6 115 4 247 -3 239 -3 239 18
239 26 0 96 -34 108 -52 8 -13 18 -45 47 -153 8 -27 21 -75 30 -105 15 -51 26
-91 55 -210 7 -25 18 -62 26 -83 28 -71 11 -92 -53 -62 -44 21 -52 31 -52 67
0 17 -8 31 -19 38 -32 17 -41 12 -41 -25 0 -33 -2 -35 -34 -35 -19 0 -37 4
-40 9 -3 5 -27 12 -53 15 -92 14 -113 26 -125 74 -6 24 -18 46 -26 49 -24 10
-47 -12 -44 -40 2 -14 -1 -28 -7 -31 -9 -6 -106 7 -211 28 -50 10 -55 14 -65
46 -15 51 -23 60 -55 60 -30 0 -42 -16 -33 -48 7 -28 -27 -45 -62 -32 -14 5
-39 10 -55 10 -16 0 -31 4 -34 9 -5 7 4 88 34 301 6 41 11 100 12 131 1 52 -2
60 -38 105 -51 63 -106 115 -119 111 -5 -2 -10 -30 -10 -63 l0 -59 -40 -5
c-38 -5 -40 -6 -39 -40 1 -19 7 -127 13 -239 6 -112 9 -212 6 -223 -5 -15 -17
-18 -63 -18 -36 0 -66 6 -80 16 -22 15 -22 18 -22 264 0 137 -4 251 -9 254 -5
3 -53 7 -107 8 l-99 3 -3 -29 c-5 -39 10 -50 66 -51 l47 0 0 -85 0 -85 -45 0
c-55 0 -70 -9 -70 -40 0 -37 26 -56 68 -49 57 8 70 -8 74 -93 1 -44 -2 -77 -9
-84 -9 -9 -166 -14 -269 -10 -21 1 -24 31 -13 99 11 68 4 192 -10 192 -9 0
-31 -99 -31 -139 0 -38 -38 -108 -77 -140 -66 -54 -141 -51 -198 8 -48 49 -63
81 -71 151 -4 33 -10 63 -15 66 -4 2 -13 -15 -19 -38 -25 -104 -36 -124 -95
-185 -48 -48 -69 -63 -101 -67 -21 -4 -62 -12 -91 -18 -41 -9 -56 -8 -67 1
-13 11 -18 10 -30 -2 -16 -16 -108 -33 -125 -23 -5 3 -22 0 -38 -8 -51 -25
-97 -36 -107 -26 -8 8 0 90 21 218 3 17 2 49 -2 70 l-8 37 -23 -51 c-16 -36
-24 -79 -28 -143 -3 -50 -8 -102 -12 -116 -6 -26 -53 -55 -87 -55 -19 0 -20 5
-14 115 4 69 2 117 -3 120 -18 11 -30 -45 -30 -134 0 -78 -2 -90 -23 -108 -40
-37 -134 -38 -111 -2 8 13 19 63 43 194 6 33 16 78 21 101 5 23 12 71 16 107
l7 66 -67 42 c-64 40 -66 42 -50 60 9 11 26 19 37 19 22 0 140 36 169 51 9 5
36 12 59 15 l42 7 -7 -34 c-27 -135 -28 -215 -3 -206 12 4 29 71 48 189 11 65
12 66 53 82 59 23 103 30 110 18 3 -6 1 -23 -4 -38 -10 -25 -21 -153 -37 -406
-6 -97 1 -159 16 -142 16 18 32 121 47 294 15 184 29 309 35 314 2 2 26 8 52
15 38 9 52 9 63 0 12 -9 17 -9 27 4 16 21 128 37 180 25 57 -13 104 -63 114
-123 12 -70 28 -67 52 10 38 124 110 195 197 195 64 0 110 -32 140 -97 8 -18
18 -33 23 -33 16 0 23 38 16 80 -6 36 -4 41 17 49 12 5 26 7 30 5 3 -2 82 -4
175 -5z m93 -226 c0 -5 3 -63 5 -130 5 -122 -3 -155 -26 -112 -9 17 -8 31 1
60 8 25 11 65 7 114 -3 43 -2 75 4 75 5 0 9 -3 9 -7z"/>
<path d="M2725 2849 c-4 -12 -2 -26 4 -32 8 -8 11 -2 11 21 0 37 -6 41 -15 11z"/>
<path d="M1706 2769 c-16 -69 -29 -166 -36 -269 -5 -63 -12 -154 -16 -202 -8
-102 7 -120 30 -35 27 96 56 501 37 520 -7 7 -12 2 -15 -14z"/>
<path d="M2380 2739 c-30 -21 -62 -39 -70 -39 -9 0 -21 14 -27 30 -15 39 -38
38 -60 -2 -21 -41 -32 -263 -14 -296 17 -32 59 -29 72 5 12 31 6 53 -16 53 -8
0 -16 3 -16 8 -6 30 -5 132 0 141 4 6 47 12 104 13 53 1 98 5 99 8 10 34 3
121 -10 119 -4 -1 -32 -18 -62 -40z"/>
<path d="M1849 2688 c-1 -2 -5 -59 -9 -128 -5 -69 -10 -136 -12 -149 -4 -28
11 -36 35 -18 38 27 61 232 31 275 -12 18 -40 30 -45 20z"/>
<path d="M3317 2544 c-6 -86 -2 -104 23 -104 20 0 43 23 33 33 -3 4 -11 37
-17 74 -15 92 -32 91 -39 -3z"/>
<path d="M3678 2463 c-4 -61 6 -97 25 -90 7 2 11 23 10 52 -3 104 -29 131 -35
38z"/>
<path d="M1740 2393 c0 -26 25 -49 35 -32 4 6 -2 21 -14 32 l-21 21 0 -21z"/>
<path d="M3986 2369 c-6 -35 -3 -46 13 -63 16 -16 23 -18 33 -8 9 9 6 23 -14
63 l-25 51 -7 -43z"/>
<path d="M3680 2916 c0 -14 5 -28 10 -31 6 -3 10 5 10 19 0 14 -4 28 -10 31
-6 3 -10 -5 -10 -19z"/>
<path d="M3075 2643 c-10 -22 -6 -233 5 -252 13 -24 21 5 30 121 13 151 13
148 -9 148 -10 0 -22 -8 -26 -17z"/>
<path d="M886 2578 c-9 -34 -7 -104 3 -130 9 -24 21 -36 81 -86 32 -27 33 -32
22 -56 -7 -15 -12 -44 -12 -64 -1 -20 -7 -48 -15 -62 -8 -14 -14 -48 -15 -77
0 -28 -7 -82 -16 -119 -14 -63 -14 -71 2 -108 41 -94 84 -111 197 -76 134 41
162 48 199 55 l36 7 33 -64 c18 -34 39 -77 48 -95 17 -34 39 -41 59 -21 19 19
15 31 -49 139 -69 117 -78 152 -38 157 24 3 30 -4 61 -65 55 -106 72 -133 86
-133 26 0 22 29 -13 91 -20 35 -41 71 -47 80 -22 32 -3 47 55 47 29 0 62 4 73
10 11 6 53 14 94 17 43 4 82 14 92 22 22 20 50 10 41 -14 -3 -10 -14 -25 -23
-33 -10 -8 -75 -87 -145 -175 -120 -150 -213 -263 -225 -275 -3 -3 -35 -42
-70 -88 -35 -46 -71 -87 -81 -93 -12 -6 -60 -4 -141 6 -68 8 -168 19 -223 25
-143 14 -337 39 -428 56 -124 22 -155 2 -197 -126 -12 -36 -28 -79 -36 -97 -8
-17 -14 -40 -14 -51 0 -12 -4 -23 -9 -27 -5 -3 -15 -30 -21 -60 -15 -71 3
-109 58 -125 41 -12 247 -27 420 -32 100 -2 118 -5 148 -26 25 -16 39 -20 51
-14 19 10 153 17 257 14 l59 -2 -6 -34 c-4 -25 0 -39 14 -55 23 -25 23 -25 74
-6 22 8 56 14 76 15 20 0 39 3 43 8 4 4 35 13 69 20 60 12 121 25 265 56 64
14 166 37 224 51 24 7 28 4 39 -33 6 -22 9 -46 7 -54 -3 -7 -70 -35 -149 -61
-79 -27 -153 -52 -164 -57 -11 -5 -49 -19 -85 -30 -36 -12 -74 -25 -85 -30
-11 -4 -49 -18 -85 -30 -36 -12 -78 -28 -95 -35 -16 -6 -56 -20 -89 -31 -64
-21 -92 -50 -82 -87 9 -37 49 -53 91 -38 19 7 56 16 82 21 45 9 98 20 268 56
39 9 102 22 140 29 39 8 104 22 145 31 41 8 102 21 135 28 33 7 68 16 78 20 9
5 30 6 45 3 114 -24 146 -27 212 -22 41 4 89 10 105 15 159 47 208 64 280 102
151 80 270 191 324 301 30 62 39 71 129 131 53 36 126 93 161 126 l64 61 -21
21 -21 21 -30 -24 c-16 -13 -65 -52 -108 -87 -43 -34 -85 -69 -93 -76 -8 -8
-24 -16 -35 -18 -16 -2 -21 3 -23 25 -4 34 14 56 83 103 79 53 159 129 151
142 -19 31 -65 4 -161 -95 -11 -11 -29 -23 -40 -25 -17 -3 -19 4 -22 57 -1 33
-5 74 -8 92 -7 40 -53 87 -110 112 -51 23 -51 38 -2 64 39 21 97 71 97 83 0 5
-23 34 -51 64 -29 30 -68 75 -87 100 -20 25 -54 64 -75 87 -43 45 -42 63 5 63
22 0 40 -10 67 -39 40 -43 99 -113 151 -181 19 -25 40 -49 46 -55 6 -5 26 -30
45 -55 18 -25 76 -94 127 -155 125 -146 122 -142 183 -221 29 -38 81 -101 114
-140 33 -39 99 -118 147 -176 49 -59 101 -111 117 -118 23 -9 70 -8 237 9 391
37 489 43 655 40 115 -3 162 -1 152 6 -11 9 -8 15 16 33 28 21 31 27 31 81 0
40 -5 63 -15 71 -8 7 -15 27 -15 45 0 18 -7 38 -15 45 -8 7 -15 23 -15 35 0
12 -7 28 -15 35 -8 7 -15 23 -15 35 0 12 -7 28 -15 35 -8 7 -15 18 -15 24 0 7
-13 25 -30 41 -22 21 -27 32 -19 41 9 11 0 12 -43 7 -29 -3 -57 -12 -61 -19
-4 -8 -22 -14 -40 -14 -18 0 -45 -7 -61 -15 -15 -8 -41 -15 -58 -15 -16 0 -41
-6 -56 -14 -15 -7 -46 -17 -69 -21 -24 -4 -45 -11 -49 -16 -3 -5 -19 -9 -35
-9 -16 0 -44 -6 -62 -14 -18 -7 -54 -16 -79 -20 -26 -4 -50 -11 -53 -17 -4 -5
-16 -9 -29 -9 -26 0 -145 -35 -193 -56 -33 -15 -82 -18 -98 -6 -6 4 -28 30
-50 57 -22 28 -63 75 -91 105 -106 115 -237 264 -344 390 -25 29 -78 87 -118
129 -87 91 -88 119 -4 90 17 -6 34 -19 37 -30 8 -26 28 -24 40 3 12 27 44 36
59 16 10 -13 44 -20 241 -46 53 -7 68 -27 43 -53 -7 -8 -26 -39 -41 -69 -16
-30 -37 -68 -48 -85 -10 -16 -22 -36 -25 -42 -8 -16 2 -43 15 -43 14 0 74 95
111 175 18 39 36 77 40 85 10 21 44 24 60 4 12 -14 8 -27 -30 -101 -25 -47
-64 -115 -87 -151 -24 -36 -43 -70 -43 -76 0 -34 53 -49 64 -18 3 9 15 31 25
47 11 17 38 64 59 105 l39 75 39 -2 c21 -2 56 -10 77 -18 20 -8 48 -15 61 -15
14 0 37 -6 53 -14 45 -22 95 -38 133 -43 29 -4 42 1 73 29 33 29 38 40 46 96
6 50 5 67 -6 78 -19 19 -22 18 -33 -10 -5 -14 -21 -33 -35 -42 -26 -17 -30
-17 -98 4 -40 12 -132 38 -205 56 -73 19 -140 40 -148 47 -8 6 -42 15 -77 19
-87 11 -235 36 -282 48 -22 5 -87 10 -144 11 -113 2 -133 8 -173 54 l-26 32
-13 -28 c-16 -35 -36 -40 -150 -33 -128 7 -128 7 -307 5 -136 -2 -161 0 -185
15 -25 17 -27 17 -51 -2 -29 -22 -127 -37 -181 -26 -21 4 -53 23 -82 50 -26
24 -50 43 -54 42 -11 -5 -89 -77 -89 -83 0 -7 45 3 83 17 50 19 80 -38 39 -75
-15 -14 -31 -16 -81 -11 l-62 7 7 30 c3 16 2 27 -2 25 -62 -30 -103 -40 -211
-52 -116 -14 -251 -39 -343 -65 -187 -52 -271 -74 -306 -78 -36 -4 -44 -1 -67
27 -23 27 -27 41 -27 96 0 36 7 81 15 101 8 19 15 65 15 102 0 37 4 71 9 76 5
6 12 42 16 81 l7 72 -44 23 c-26 15 -51 39 -63 62 -23 42 -40 47 -49 15z
m1428 -497 c3 -5 -11 -28 -32 -52 -83 -96 -80 -88 -74 -194 5 -93 4 -97 -22
-124 l-26 -27 22 -20 c13 -11 46 -30 73 -43 28 -12 58 -26 67 -32 10 -5 31 -9
48 -9 16 0 30 -3 30 -6 0 -19 -24 -43 -50 -49 -16 -4 -30 -10 -30 -15 0 -5
-13 -11 -30 -15 -16 -4 -32 -11 -35 -16 -4 -5 -15 -9 -27 -9 -11 0 -34 -6 -51
-13 -86 -37 -157 -56 -203 -57 -19 0 -34 -6 -38 -15 -5 -15 -41 -33 -93 -49
-33 -10 -30 18 5 52 16 15 43 47 62 72 18 25 39 50 45 55 21 19 165 214 176
239 9 19 9 44 0 101 -11 68 -11 79 5 103 19 29 54 70 94 108 24 24 74 32 84
15z m124 -8 c-10 -2 -28 -2 -40 0 -13 2 -5 4 17 4 22 1 32 -1 23 -4z m365 0
c-18 -2 -48 -2 -65 0 -18 2 -4 4 32 4 36 0 50 -2 33 -4z m-188 -13 c-20 -33
70 -75 103 -48 10 9 18 9 31 1 13 -8 24 -7 42 3 13 7 30 13 37 14 18 0 15 -57
-3 -64 -10 -3 -15 -19 -15 -46 0 -27 5 -43 15 -46 9 -4 15 -19 15 -36 0 -28
-1 -29 -32 -22 -18 4 -77 6 -132 5 -58 -1 -104 3 -111 9 -9 8 -15 8 -20 0 -3
-5 -37 -10 -75 -10 -67 0 -70 1 -85 30 -32 61 -3 170 45 170 11 0 20 -4 20 -9
0 -5 26 -9 58 -8 57 2 57 2 60 35 3 27 7 32 28 32 14 0 22 -4 19 -10z m-617
-59 c9 -5 31 -13 47 -18 l30 -8 3 -105 c3 -112 -2 -145 -18 -120 -6 8 -10 26
-11 40 0 21 -3 18 -15 -15 -8 -22 -21 -43 -29 -48 -8 -4 -40 -42 -71 -85 -32
-42 -69 -93 -83 -112 -44 -59 -62 -90 -51 -90 14 0 13 -27 -1 -36 -6 -3 -15 0
-20 7 -6 9 -9 -2 -9 -33 0 -44 -2 -48 -27 -54 -16 -4 -37 -13 -48 -20 -11 -8
-29 -14 -40 -14 -11 0 -29 -7 -39 -15 -24 -18 -60 -19 -86 -3 -15 10 -22 10
-32 0 -9 -9 -7 -12 9 -12 27 0 38 -16 17 -24 -25 -9 -59 -7 -71 5 -6 6 -17 8
-23 4 -9 -6 -8 -10 4 -17 24 -14 10 -28 -29 -28 -20 0 -35 -6 -39 -15 -3 -9
-18 -15 -40 -15 -21 0 -36 -6 -40 -15 -3 -9 -18 -15 -39 -15 -19 0 -40 -7 -47
-15 -7 -8 -27 -15 -44 -15 -17 0 -40 -7 -50 -15 -11 -8 -33 -15 -48 -15 -16 0
-37 -5 -47 -12 -14 -9 -42 -6 -127 10 -205 40 -433 60 -434 37 -1 -16 217 -55
405 -72 73 -6 83 -14 53 -42 -21 -21 -30 -22 -123 -16 -55 3 -131 10 -170 15
-38 5 -121 12 -183 16 -85 5 -115 10 -119 21 -17 43 88 344 124 357 8 3 67 3
132 -1 93 -5 124 -10 142 -24 l24 -19 -50 0 c-82 0 -156 -12 -152 -24 3 -10
78 -23 257 -45 62 -8 78 -14 95 -35 28 -35 35 -33 35 8 0 34 1 35 48 39 l47 3
-55 2 c-30 1 -61 6 -69 11 -39 25 175 25 261 1 18 -6 67 -10 109 -10 62 0 78
3 83 16 4 10 14 14 26 11 13 -3 20 0 20 9 0 7 6 11 13 8 15 -5 121 108 177
188 20 30 49 66 63 82 15 16 27 34 27 41 0 6 11 17 25 23 13 6 31 26 38 44 8
18 22 40 32 48 23 19 158 188 174 218 12 23 30 27 59 13z m321 -103 c1 -21 -3
-38 -8 -38 -10 0 -21 89 -13 104 8 15 21 -25 21 -66z m586 -20 c11 -10 30 -21
42 -24 27 -7 42 -66 24 -88 -7 -8 -9 -25 -6 -39 10 -38 -18 -47 -153 -47 -87
0 -128 -4 -148 -15 -16 -8 -43 -15 -59 -15 -17 0 -35 -4 -40 -9 -13 -11 -109
-41 -132 -41 -17 1 -17 1 0 14 21 16 12 25 -35 32 -57 8 -105 22 -81 23 34 2
35 15 3 46 -23 22 -32 26 -43 17 -23 -19 -27 -4 -27 94 0 104 14 132 25 49 7
-61 28 -81 70 -71 14 4 27 1 32 -6 18 -28 78 -49 120 -42 25 4 43 2 47 -4 4
-6 13 -9 21 -6 8 3 49 7 92 9 128 4 185 15 190 36 3 11 12 19 19 19 20 0 18
70 -2 84 -10 8 -13 18 -8 31 7 17 8 17 18 -6 6 -13 20 -32 31 -41z m96 -21
c-1 -12 -15 -9 -19 4 -3 6 1 10 8 8 6 -3 11 -8 11 -12z m-40 -243 c27 -9 49
-20 49 -24 0 -4 10 -10 23 -14 42 -10 69 -61 68 -127 0 -33 -7 -72 -15 -88
-17 -32 -114 -134 -164 -171 -19 -14 -39 -30 -45 -35 -39 -35 -249 -145 -276
-145 -6 0 -19 -4 -29 -9 -38 -21 -162 -41 -248 -41 -100 0 -169 18 -221 57
-24 18 -36 22 -50 15 -10 -5 -34 -12 -53 -15 -44 -7 -232 -49 -410 -92 -30 -7
-91 -22 -134 -34 -179 -48 -216 -9 -41 43 33 10 71 23 85 29 14 5 41 13 60 17
34 8 84 24 125 41 34 14 288 96 320 103 38 9 60 25 69 53 10 32 -6 35 -76 13
-65 -20 -235 -62 -348 -85 -36 -8 -96 -21 -135 -30 -69 -17 -141 -33 -240 -55
-27 -6 -66 -16 -85 -22 -19 -7 -55 -15 -80 -19 -25 -5 -71 -13 -103 -20 -45
-9 -61 -9 -70 0 -9 9 -7 15 8 24 26 16 110 46 155 56 19 5 46 13 60 18 38 16
92 34 125 43 30 8 83 26 120 41 11 4 54 19 95 33 41 13 120 40 175 59 55 19
147 49 205 66 58 18 120 39 138 47 18 8 39 14 47 14 8 0 29 6 47 14 48 20 98
37 140 47 20 5 78 34 128 64 50 30 93 55 96 55 3 0 20 6 37 14 35 16 138 48
202 64 66 16 191 14 246 -4z m1861 -171 c8 -10 22 -31 30 -48 8 -16 22 -45 31
-63 9 -19 17 -39 17 -45 0 -7 6 -24 14 -38 15 -30 42 -156 34 -164 -2 -3 -43
-15 -89 -26 -81 -21 -84 -21 -94 -3 -5 10 -24 33 -41 51 -25 26 -40 33 -69 33
-32 0 -36 3 -33 23 3 20 -1 22 -42 21 -25 -1 -75 -7 -112 -15 -76 -15 -95 -7
-58 22 l25 20 -45 -5 c-95 -10 -167 -24 -188 -35 -11 -6 -32 -11 -46 -11 -25
0 -28 3 -30 32 -1 11 48 26 174 53 36 7 78 18 93 24 16 6 40 11 55 11 15 0 47
7 72 15 25 8 62 17 83 20 21 3 35 10 32 16 -8 13 -77 11 -112 -2 -15 -6 -55
-15 -88 -20 -89 -12 -174 -29 -229 -45 -26 -8 -63 -14 -81 -14 -18 0 -49 -7
-70 -16 -21 -8 -57 -14 -83 -12 l-47 3 35 23 c19 12 46 25 60 28 14 2 40 9 57
15 18 6 54 14 80 19 27 5 75 15 108 23 33 8 92 22 130 31 130 31 180 44 270
69 110 30 138 32 157 10z m-1714 -216 c-6 -88 -19 -123 -71 -192 -81 -107
-141 -154 -278 -221 -167 -82 -289 -110 -432 -99 -133 10 -160 9 -235 -8 -37
-8 -102 -22 -144 -31 -156 -32 -236 -50 -375 -83 -138 -32 -227 -43 -207 -24
5 5 131 51 279 101 356 120 437 150 454 165 11 11 11 21 -2 66 -9 29 -14 55
-12 58 3 2 26 -7 52 -20 43 -22 58 -24 187 -24 140 0 152 2 287 46 170 55 413
225 468 327 24 45 34 25 29 -61z m812 -37 c0 -6 34 -10 83 -10 75 0 85 -2 111
-27 36 -33 122 -46 132 -19 5 12 20 16 66 16 77 0 76 -24 -1 -28 -94 -6 -51
-34 79 -51 l55 -8 -45 -2 c-25 -1 -66 -6 -92 -10 -53 -9 -74 -1 -65 23 8 21
-23 21 -78 1 -22 -8 -67 -14 -99 -15 -33 0 -57 -2 -54 -5 3 -3 51 -6 106 -6
56 0 102 -4 102 -8 0 -8 -105 -21 -172 -21 -24 0 -45 7 -57 19 -11 11 -33 26
-48 34 -33 18 -69 64 -79 101 -6 24 -4 26 25 26 17 0 31 -4 31 -10z m600 -80
c0 -6 -27 -10 -60 -10 -33 0 -60 4 -60 10 0 6 27 10 60 10 33 0 60 -4 60 -10z
m-3155 -139 c-6 -5 -32 -11 -60 -14 l-50 -6 45 14 c55 16 78 18 65 6z"/>
<path d="M2603 1920 c3 -67 22 -69 23 -2 1 36 -3 52 -12 52 -9 0 -12 -15 -11
-50z"/>
<path d="M477 1242 c-39 -16 34 -46 138 -56 77 -8 174 -24 252 -42 67 -15 116
-18 126 -7 12 12 -15 33 -43 33 -15 0 -33 6 -39 14 -12 14 -101 31 -256 46
-55 6 -113 12 -130 15 -16 2 -38 1 -48 -3z"/>
<path d="M2660 1528 c-22 -8 -21 -9 18 -47 51 -50 61 -96 33 -155 -52 -106
-172 -198 -380 -289 -25 -11 -24 -12 19 -15 25 -2 70 3 100 12 30 8 68 18 83
21 18 4 27 11 24 19 -3 7 11 26 30 42 61 50 124 116 151 158 21 33 26 54 26
108 1 60 -2 70 -26 95 -20 21 -25 32 -17 40 14 14 -30 23 -61 11z"/>
</g>
</svg>
