<?xml version="1.0" standalone="no"?>
<!DOCTYPE svg PUBLIC "-//W3C//DTD SVG 20010904//EN"
 "http://www.w3.org/TR/2001/REC-SVG-20010904/DTD/svg10.dtd">
<svg version="1.0" xmlns="http://www.w3.org/2000/svg"
 width="175.000000pt" height="150.000000pt" viewBox="0 0 852.000000 552.000000"
 preserveAspectRatio="xMidYMid meet">
<metadata>
Created by potrace 1.10, written by Peter Selinger 2001-2011
</metadata>
<g transform="translate(0.000000,552.000000) scale(0.100000,-0.100000)"
fill="#0b4881" stroke="none">
<path d="M1005 5474 c-11 -3 -47 -9 -80 -15 -449 -81 -804 -437 -886 -889 -12
-61 -14 -396 -14 -1850 0 -1668 1 -1780 18 -1854 10 -43 22 -87 27 -97 6 -10
10 -25 10 -34 0 -25 88 -201 134 -269 53 -78 165 -197 237 -252 32 -24 60 -44
63 -44 3 0 22 -12 43 -26 43 -29 177 -94 195 -94 7 0 30 -6 53 -14 22 -7 61
-19 88 -25 34 -8 690 -11 2380 -11 1976 0 2338 2 2372 14 136 48 257 157 348
311 50 87 60 95 113 95 43 0 162 24 192 39 9 4 35 17 57 27 145 69 285 210
353 357 26 54 32 80 32 132 l0 65 -37 1 c-21 1 -49 4 -63 8 -59 16 17 25 245
29 132 2 242 5 245 8 3 3 7 94 10 202 l5 196 80 18 c44 10 101 25 126 33 26 8
52 15 59 15 7 0 26 6 43 14 18 7 68 28 112 47 44 18 102 46 128 61 26 15 50
28 52 28 9 0 103 66 155 109 123 100 228 231 290 361 50 104 66 153 85 255 31
170 12 365 -52 540 -16 41 -75 165 -96 200 -27 44 -113 152 -146 184 -117 109
-284 208 -421 249 -119 37 -154 44 -265 58 -139 17 -202 17 -345 -1 -153 -19
-240 -41 -380 -95 -30 -12 -66 -24 -79 -27 -21 -5 -23 -3 -18 18 3 13 14 49
26 79 68 178 99 438 70 594 -12 62 -46 189 -59 216 -4 8 -22 47 -40 85 -19 39
-46 89 -62 113 -15 24 -28 45 -28 48 0 3 -33 49 -74 102 -70 91 -150 174 -321
332 -39 36 -125 115 -190 177 -66 61 -138 127 -160 147 l-40 36 -2285 -1
c-1257 -1 -2294 -3 -2305 -5z m1165 -75 c25 0 799 2 1720 3 l1674 3 31 -25
c16 -14 32 -27 35 -30 3 -4 64 -60 135 -125 198 -181 231 -212 340 -320 109
-109 118 -118 186 -215 92 -130 156 -261 195 -400 26 -90 26 -351 0 -460 -27
-113 -73 -243 -127 -357 -27 -56 -49 -104 -49 -107 0 -14 36 -4 64 17 44 34
207 110 301 141 157 53 265 69 450 69 126 1 191 -4 250 -17 239 -53 394 -130
544 -270 249 -235 359 -627 267 -955 -19 -65 -84 -203 -128 -268 -70 -105
-235 -255 -363 -330 -131 -76 -425 -187 -445 -167 -6 6 -3 36 6 79 23 100 34
238 28 325 -14 185 -88 289 -246 345 -109 38 -244 23 -341 -37 -91 -58 -197
-212 -197 -288 l0 -30 283 -2 282 -3 0 -410 0 -410 -352 -3 c-204 -1 -353 -6
-353 -11 0 -18 53 -72 94 -96 54 -32 151 -65 188 -65 23 0 28 -4 28 -25 0 -36
-42 -125 -88 -187 -82 -111 -196 -197 -337 -254 -23 -9 -84 -18 -143 -21
l-103 -6 -25 -51 c-97 -197 -238 -326 -407 -371 -65 -17 -167 -18 -2300 -12
-1905 6 -2244 9 -2317 22 -235 40 -431 148 -586 320 -114 126 -186 261 -235
436 -24 83 -24 92 -27 639 -10 1472 -7 2906 6 3004 12 95 33 188 52 231 5 11
19 45 31 75 49 118 127 231 233 335 155 152 345 246 566 281 67 11 197 12 610
7 289 -3 545 -5 570 -4z m4806 -3121 c163 -32 257 -183 241 -386 -14 -174 -56
-346 -77 -313 -4 7 -6 111 -3 230 2 122 0 222 -5 229 -7 10 -64 13 -263 13
-140 -1 -260 3 -267 8 -11 7 -9 17 12 50 63 100 132 152 227 170 62 12 69 12
135 -1z"/>
<path d="M1408 5228 c-3 -7 1 -44 8 -82 7 -39 13 -88 13 -108 1 -20 5 -40 11
-43 5 -3 62 -10 127 -16 103 -9 126 -15 187 -45 166 -83 230 -133 219 -172 -7
-29 -8 -29 -89 -42 -52 -8 -120 -8 -271 1 -112 7 -206 10 -210 6 -3 -4 1 -42
10 -85 8 -42 19 -101 22 -129 8 -63 20 -66 75 -23 l39 31 218 -7 c154 -5 225
-4 240 4 18 10 21 23 25 119 3 59 2 118 -3 130 -13 35 -76 99 -146 149 -93 67
-86 78 52 82 126 4 194 -13 246 -60 34 -32 34 -26 10 -198 -31 -217 -30 -204
-11 -224 25 -25 47 -15 55 26 3 18 12 60 20 93 41 179 41 235 -1 333 -8 18
-14 38 -14 44 0 24 -61 135 -90 163 l-30 29 -252 1 c-202 1 -265 5 -313 18
-69 20 -142 22 -147 5z"/>
<path d="M2190 5213 c0 -10 10 -30 23 -43 24 -26 79 -152 92 -210 14 -65 25
-6 22 127 l-2 133 -52 0 c-28 0 -58 3 -67 6 -11 4 -16 0 -16 -13z"/>
<path d="M2573 5204 c-3 -8 2 -43 10 -77 9 -34 19 -83 23 -108 l6 -46 -73 -7
c-99 -9 -124 -32 -74 -68 36 -27 203 -78 254 -78 25 0 70 6 100 14 31 8 67 17
81 20 14 3 34 12 45 20 20 14 20 15 -4 40 -14 14 -32 26 -42 26 -9 0 -33 7
-52 15 -20 8 -47 15 -61 15 -13 0 -38 13 -54 28 -30 28 -31 32 -31 115 1 47
-2 91 -6 97 -3 5 -31 10 -61 10 -40 0 -56 -4 -61 -16z"/>
<path d="M2937 5212 c-25 -5 -21 -21 7 -28 61 -15 84 -75 120 -314 23 -149 21
-192 -8 -227 -35 -42 -163 -100 -280 -127 -34 -8 -27 -16 34 -40 127 -52 171
-82 193 -134 31 -75 61 -317 59 -477 l-1 -69 24 29 c13 17 24 36 25 43 0 7 35
48 78 90 120 120 256 203 494 302 116 49 147 61 243 97 92 35 82 12 87 200 5
189 19 242 83 326 62 82 79 87 266 87 l164 0 52 -36 c96 -66 133 -145 170
-363 10 -57 23 -106 29 -108 7 -2 26 20 44 49 89 145 259 321 597 619 34 30
62 59 62 65 1 17 -694 26 -1694 22 -457 -2 -838 -4 -848 -6z"/>
<path d="M925 5190 c-145 -38 -247 -89 -352 -178 -132 -111 -222 -259 -272
-449 -15 -57 -30 -3370 -15 -3543 9 -116 57 -265 117 -365 54 -91 197 -235
278 -280 85 -48 173 -85 182 -76 23 23 58 130 61 191 5 89 34 150 107 223 33
34 81 92 106 130 50 76 49 62 27 263 -4 37 -3 64 3 67 6 4 44 0 84 -9 l74 -15
37 43 c40 45 47 71 25 97 -48 57 -75 249 -57 402 6 59 18 112 28 127 21 32 70
53 157 67 87 13 95 31 27 62 -60 28 -132 90 -154 134 -33 69 -47 194 -49 443
l-2 239 24 18 c21 16 22 18 6 24 -28 11 -65 -3 -134 -51 -36 -25 -72 -44 -81
-42 -14 3 -19 27 -31 138 -7 74 -14 162 -15 195 l-1 60 258 3 c151 1 257 6
257 12 0 17 -25 65 -44 84 -15 15 -39 21 -110 25 l-90 6 -7 35 c-16 84 -29
184 -29 230 0 45 2 50 23 50 31 -1 125 -25 168 -43 39 -17 95 -75 109 -113 5
-13 16 -24 24 -24 7 0 46 27 85 60 39 32 80 64 91 70 39 21 20 30 -62 30 -92
0 -131 12 -282 85 -155 76 -151 69 -165 314 -6 107 -14 232 -18 280 -6 85 -5
86 23 116 16 17 39 37 52 45 l23 15 -16 95 c-9 52 -21 122 -26 155 -5 33 -13
73 -19 88 -20 58 5 72 99 55 92 -16 463 -17 468 -1 4 12 -31 37 -131 92 -97
53 -133 62 -264 68 -122 6 -122 6 -128 32 -3 14 -8 35 -12 46 -3 11 -8 58 -11
105 l-6 85 -185 2 c-151 1 -198 -2 -255 -17z"/>
<path d="M1931 4943 c8 -10 23 -25 34 -33 31 -23 74 -71 102 -114 23 -35 25
-46 19 -100 -13 -133 -26 -209 -37 -222 -8 -10 -40 -14 -116 -14 -131 0 -131
-18 2 -57 33 -10 119 -70 134 -95 31 -50 69 -289 78 -483 6 -140 -11 -175
-122 -240 -15 -9 -14 -15 10 -65 15 -30 33 -70 41 -88 7 -18 21 -48 30 -66 9
-19 14 -38 10 -44 -3 -5 -36 -24 -73 -42 -225 -108 -283 -142 -283 -162 0 -9
110 -7 260 4 34 3 35 2 42 -45 3 -27 11 -54 16 -60 5 -7 13 -39 17 -72 7 -53
9 -57 16 -32 7 26 3 64 -20 174 -4 23 -6 45 -3 48 9 9 143 4 262 -9 63 -8 118
-11 122 -7 5 4 -15 28 -42 54 -71 67 -98 115 -110 194 -13 89 -13 160 0 184
24 44 159 99 243 99 41 0 50 15 15 25 -13 4 -65 27 -116 52 -131 66 -127 57
-143 349 -14 279 -14 270 4 298 22 33 73 53 167 67 74 10 90 9 116 -4 17 -9
35 -22 41 -29 11 -14 30 -106 61 -293 l18 -110 79 4 c134 5 183 43 123 93 -18
15 -36 28 -40 28 -21 1 -157 73 -162 86 -3 9 -6 73 -6 144 0 90 -4 131 -12
138 -7 5 -33 13 -57 17 -135 22 -290 125 -292 194 0 14 -4 35 -9 46 -7 18 -9
18 -20 -10 -6 -16 -16 -52 -22 -80 -5 -27 -16 -72 -23 -100 -7 -27 -17 -66
-22 -85 -5 -19 -16 -36 -25 -38 -9 -2 -39 11 -67 28 l-51 32 0 56 c0 32 5 75
10 97 5 22 14 85 20 139 10 91 9 101 -7 117 -22 21 -129 49 -185 49 -37 0 -39
-1 -27 -17z"/>
<path d="M1549 4465 c-56 -31 -110 -101 -61 -80 9 5 47 10 83 13 62 4 67 3 96
-27 24 -23 34 -47 46 -103 17 -85 37 -209 46 -288 l6 -55 100 3 c106 4 149 18
160 52 9 29 -5 42 -83 80 -37 18 -86 42 -110 53 -24 12 -47 26 -50 32 -4 5 -9
78 -12 160 l-5 150 -45 6 c-130 17 -145 18 -171 4z"/>
<path d="M1827 4393 c-4 -3 -7 -55 -7 -114 l0 -109 102 -50 c134 -66 151 -83
145 -135 -9 -65 -48 -91 -155 -99 -48 -3 -104 -11 -125 -17 -20 -5 -41 -8 -45
-5 -9 5 -25 96 -77 418 -8 49 -48 82 -90 74 -16 -3 -57 -10 -90 -15 -72 -11
-112 -28 -117 -50 -2 -9 -1 -122 3 -252 6 -238 15 -298 48 -330 14 -13 89 -51
196 -100 38 -17 120 -39 147 -39 82 0 286 67 318 105 26 31 18 243 -19 500
-15 104 -46 145 -141 184 -30 13 -59 27 -64 32 -12 11 -20 11 -29 2z m-201
-321 c28 -18 60 -136 44 -162 -7 -11 -46 -2 -158 33 -44 13 -112 60 -112 77 0
16 51 44 94 51 58 9 119 10 132 1z"/>
<path d="M1518 4033 c-21 -2 -38 -8 -38 -13 0 -14 43 -40 67 -40 12 0 25 -4
28 -10 3 -5 15 -10 26 -10 18 0 20 4 14 33 -12 52 -6 49 -97 40z"/>
<path d="M2465 4090 c-8 -12 67 -50 100 -50 27 0 31 10 15 41 -8 15 -21 19
-60 19 -27 0 -51 -4 -55 -10z"/>
<path d="M2992 3719 c-56 -36 -163 -67 -262 -75 -89 -7 -92 -8 -50 -16 24 -4
60 -15 80 -24 81 -36 162 -80 172 -91 15 -19 23 -16 36 12 13 28 72 200 72
209 0 11 -15 6 -48 -15z"/>
<path d="M4886 3550 c-54 -93 -118 -229 -126 -269 -4 -20 -17 -71 -29 -113
-11 -43 -21 -86 -21 -95 0 -10 25 -44 55 -75 29 -31 72 -84 95 -118 40 -59
140 -259 140 -280 0 -21 32 -58 54 -64 13 -3 35 -22 50 -41 20 -26 34 -35 57
-35 28 0 30 2 25 28 -2 15 -7 50 -11 77 -3 28 -11 64 -16 81 -9 29 -15 32 -62
38 -41 5 -61 15 -90 41 -32 29 -36 38 -31 65 5 22 2 36 -11 50 -27 30 -55 146
-55 229 0 41 7 110 16 153 13 64 14 94 6 151 -6 42 -6 97 -2 132 17 126 9 135
-44 45z"/>
<path d="M1861 3464 c-52 -41 -120 -97 -150 -125 -31 -27 -59 -49 -62 -49 -3
0 -21 28 -38 63 -18 34 -42 72 -53 83 -23 25 -146 70 -158 57 -14 -13 3 -203
19 -212 7 -5 47 -11 89 -14 66 -5 79 -9 102 -34 15 -15 40 -59 55 -96 24 -58
26 -70 14 -78 -13 -9 -220 -6 -431 7 -80 5 -88 4 -89 -13 -2 -34 1 -138 7
-205 7 -80 16 -84 77 -35 l41 32 386 0 385 0 -2 53 c-1 28 -7 61 -13 71 -5 11
-10 35 -10 54 0 50 -19 62 -74 48 -25 -6 -83 -11 -130 -11 -85 0 -86 0 -101
30 -8 16 -15 33 -15 39 0 12 49 58 81 75 51 28 225 114 242 120 31 10 30 34
-2 99 -17 34 -31 68 -31 74 0 13 -27 43 -38 43 -4 0 -49 -34 -101 -76z"/>
<path d="M2519 3324 c-11 -14 -8 -21 30 -56 49 -43 107 -84 164 -113 47 -25
58 -18 103 62 l35 62 -23 15 c-60 39 -283 61 -309 30z"/>
<path d="M2259 2810 c-19 -16 -42 -32 -51 -36 -10 -3 -18 -9 -18 -14 0 -5 -9
-12 -20 -15 -11 -3 -20 -13 -20 -22 0 -8 26 -59 58 -112 32 -53 61 -104 65
-113 3 -10 13 -18 21 -18 13 0 14 17 10 113 -5 101 -3 114 14 134 28 31 64 44
156 54 78 8 115 26 102 48 -5 7 -56 11 -145 11 l-138 0 -34 -30z"/>
<path d="M1625 2800 c-44 -3 -73 -8 -64 -12 10 -4 22 -33 32 -80 24 -111 38
-208 32 -217 -2 -5 -39 -12 -80 -16 -68 -6 -78 -10 -87 -31 -19 -42 17 -77
132 -127 65 -29 117 -39 166 -34 68 7 146 25 158 37 6 6 18 10 28 10 10 0 24
11 30 25 19 42 -14 75 -108 106 -47 16 -92 39 -113 57 l-33 31 3 125 c3 79 0
127 -6 128 -5 2 -46 1 -90 -2z"/>
<path d="M1875 2801 c-19 -8 -19 -8 5 -15 42 -13 112 -47 129 -63 9 -9 23 -36
32 -61 17 -50 36 -64 45 -35 3 10 14 38 24 63 10 26 16 58 13 78 l-5 32 -83 0
c-45 0 -95 2 -111 5 -16 2 -38 1 -49 -4z"/>
<path d="M1769 2763 c0 -5 -1 -51 -2 -103 -3 -110 3 -120 80 -144 95 -29 144
-56 156 -89 4 -10 11 -15 17 -12 13 8 13 59 -1 126 -6 30 -15 71 -19 92 -9 46
-42 83 -78 90 -15 3 -52 14 -82 26 -60 23 -70 25 -71 14z"/>
<path d="M1384 2735 c-8 -21 3 -403 14 -506 16 -140 54 -191 192 -256 105 -49
129 -55 180 -39 117 37 223 90 260 133 27 30 30 40 29 96 -1 34 -4 91 -8 127
l-6 65 -26 -25 c-80 -77 -310 -122 -394 -76 -16 9 -35 16 -40 16 -14 0 -74 31
-111 57 -48 34 -88 97 -76 120 21 38 55 58 115 68 71 11 70 9 48 125 -7 36
-15 75 -17 88 -4 20 -9 22 -80 22 -57 0 -76 -4 -80 -15z"/>
<path d="M2066 2545 c-3 -9 0 -44 8 -78 16 -72 31 -340 22 -383 -12 -49 -167
-154 -259 -173 -15 -3 -28 -10 -29 -16 -1 -17 92 -60 106 -49 7 5 35 24 62 43
50 35 114 109 114 134 0 7 4 17 9 23 4 5 25 41 46 79 21 39 50 89 66 113 16
24 29 46 29 49 0 3 13 22 28 42 16 20 31 46 35 59 l5 22 -28 -20 -28 -20 -90
95 c-69 74 -91 92 -96 80z"/>
<path d="M3350 2243 c-7 -3 -52 -38 -100 -77 -47 -40 -115 -96 -152 -125 -37
-30 -70 -62 -73 -72 -3 -10 1 -32 10 -48 8 -17 18 -50 21 -74 7 -52 4 -54 -97
-63 -38 -4 -72 -11 -75 -15 -5 -8 7 -21 67 -74 50 -44 96 -106 103 -140 7 -35
-8 -173 -27 -260 -12 -52 -18 -62 -46 -76 l-33 -15 24 -16 c14 -9 41 -23 62
-32 l36 -15 21 42 c34 66 114 218 139 261 12 22 33 62 47 88 14 26 29 50 33
53 4 2 18 37 30 76 13 39 33 85 45 103 49 73 58 115 53 263 -5 143 -20 204
-53 217 -9 3 -17 6 -18 5 -1 0 -9 -3 -17 -6z"/>
<path d="M4430 2184 c-19 -31 -79 -102 -133 -158 -95 -98 -167 -197 -167 -230
0 -14 30 -16 294 -16 241 0 296 3 305 14 15 17 6 147 -14 221 -15 53 -40 82
-112 128 -23 14 -54 42 -70 62 -40 50 -61 46 -103 -21z"/>
<path d="M1575 1850 c-38 -4 -93 -15 -122 -25 -72 -24 -78 -42 -78 -235 0
-246 21 -284 201 -375 106 -53 126 -60 179 -60 35 0 78 7 103 18 23 9 61 25
85 34 72 29 83 45 96 136 7 45 14 94 16 108 2 14 2 35 -1 45 -5 17 -10 15 -48
-21 -40 -39 -49 -43 -142 -59 -96 -16 -101 -16 -174 3 -188 48 -242 71 -274
114 -24 33 -17 52 34 81 66 39 288 58 370 31 85 -27 135 -47 172 -68 21 -11
40 -19 42 -16 4 4 -7 74 -19 126 -7 29 -37 57 -94 87 -25 13 -68 36 -96 51
-57 31 -134 39 -250 25z"/>
<path d="M4098 1733 c-9 -10 -25 -37 -36 -59 -12 -23 -64 -93 -118 -155 -97
-116 -117 -148 -176 -298 -31 -79 -42 -93 -187 -250 -154 -165 -248 -260 -395
-399 l-77 -74 1 -56 c3 -110 1 -121 -25 -144 -57 -50 -93 -48 930 -48 780 0
957 2 961 13 2 7 -4 33 -15 58 -26 56 -26 90 -1 139 14 28 27 40 43 41 53 2
122 -3 143 -11 39 -15 50 12 25 62 -11 24 -27 70 -35 102 -9 32 -18 61 -21 64
-2 3 -31 -1 -62 -8 -202 -46 -339 -3 -421 131 -36 59 -31 65 49 73 160 15 302
87 390 198 65 82 110 198 87 225 -8 10 -112 13 -525 13 l-515 0 3 200 c2 110
1 200 -2 200 -3 0 -13 -8 -21 -17z"/>
<path d="M2597 1626 c-37 -34 -64 -66 -60 -69 9 -10 311 -8 317 1 12 20 -141
133 -178 132 -6 -1 -41 -29 -79 -64z"/>
<path d="M1555 1598 c-22 -5 -52 -11 -67 -15 -19 -3 -28 -12 -28 -24 0 -12 11
-24 28 -31 15 -6 41 -17 59 -24 17 -8 36 -14 41 -14 13 0 92 94 92 109 0 13
-67 13 -125 -1z"/>
<path d="M2223 1351 c-34 -26 -91 -82 -127 -125 l-64 -77 13 -52 c23 -88 38
-179 42 -251 l5 -69 -39 7 c-21 4 -121 9 -222 13 l-184 6 7 -44 c4 -24 10 -75
14 -112 5 -42 13 -72 22 -77 21 -13 159 -12 280 1 55 7 102 10 105 8 2 -2 6
-67 10 -144 9 -207 -8 -185 150 -185 114 0 135 2 135 15 0 9 -10 19 -22 24
-25 10 -126 94 -145 121 -6 9 -22 45 -35 81 -20 57 -23 82 -23 234 0 141 3
179 19 225 17 49 48 89 69 90 5 0 23 6 40 13 70 30 268 77 322 77 47 0 114
-29 209 -92 50 -32 96 -56 103 -54 9 4 13 31 13 96 0 50 4 99 10 109 8 16 4
19 -28 24 -20 3 -120 6 -222 6 l-185 1 -65 -55 c-35 -30 -70 -55 -77 -55 -14
0 -20 32 -28 165 -6 90 -16 126 -34 125 -3 -1 -34 -22 -68 -49z"/>
<path d="M1223 985 c3 -76 11 -143 17 -149 7 -7 30 -5 74 7 35 9 96 17 135 17
58 0 74 -4 96 -22 26 -23 26 -25 28 -168 l2 -145 -55 -3 c-30 -2 -109 2 -174
8 -65 6 -121 8 -124 5 -9 -9 16 -267 27 -278 6 -6 31 -2 72 12 57 19 85 21
293 21 211 0 263 -4 395 -26 l44 -7 -7 54 c-3 30 -9 91 -12 136 l-7 81 -167
-5 c-92 -3 -178 -3 -192 0 -23 6 -26 15 -42 109 -10 57 -16 128 -14 158 l3 55
85 0 c47 0 144 -2 215 -5 126 -5 130 -4 128 15 -4 39 -21 132 -34 189 l-13 58
-50 -5 c-267 -29 -308 -31 -429 -18 -136 14 -215 25 -266 36 l-34 8 6 -138z"/>
<path d="M2530 789 c-44 -8 -129 -28 -203 -47 -52 -14 -88 -39 -81 -57 9 -23
148 -100 238 -130 43 -15 60 -15 130 -5 87 13 110 26 149 90 12 19 27 41 34
48 21 21 15 41 -14 48 -15 4 -38 13 -52 20 -14 8 -33 14 -41 14 -8 0 -33 7
-55 15 -45 16 -43 16 -105 4z"/>
<path d="M1433 664 c-35 -35 -63 -70 -63 -78 0 -9 19 -16 63 -20 91 -10 98 -5
96 63 -2 72 -8 101 -23 100 -6 -1 -39 -30 -73 -65z"/>
<path d="M1113 325 c-29 -29 -53 -57 -53 -63 0 -15 110 -20 121 -5 13 15 7
116 -6 119 -5 1 -34 -22 -62 -51z"/>
</g>
</svg>
