<?xml version="1.0" standalone="no"?>
<!DOCTYPE svg PUBLIC "-//W3C//DTD SVG 20010904//EN"
 "http://www.w3.org/TR/2001/REC-SVG-20010904/DTD/svg10.dtd">
<svg version="1.0" xmlns="http://www.w3.org/2000/svg"
  width="175.000000pt" height="150.000000pt" viewBox="0 0 600.000000 123.000000"
 preserveAspectRatio="xMidYMid meet">
<metadata>
Created by potrace 1.10, written by Peter Selinger 2001-2011
</metadata>
<g transform="translate(0.000000,123.000000) scale(0.100000,-0.100000)"
fill="#000000" stroke="none">
<path d="M3880 1018 c-41 -4 -97 -16 -123 -28 -48 -22 -167 -125 -167 -146 0
-6 -13 -28 -30 -50 -16 -21 -30 -44 -30 -51 0 -6 -6 -18 -14 -26 -8 -7 -23
-29 -33 -48 -10 -19 -31 -53 -46 -76 -15 -24 -27 -47 -27 -51 0 -5 -9 -21 -21
-36 -32 -41 -79 -139 -79 -166 0 -29 35 -98 59 -118 9 -7 34 -22 56 -32 39
-19 73 -20 961 -20 1004 0 973 -2 1068 57 63 39 106 89 174 201 34 57 62 105
62 107 0 2 14 24 30 48 17 25 30 48 30 51 0 4 23 44 50 90 62 103 67 150 21
214 -17 22 -39 43 -50 47 -12 3 -21 10 -21 15 0 5 -19 12 -43 15 -59 9 -1733
12 -1827 3z m1810 -63 c19 -3 49 -17 65 -31 47 -37 42 -88 -18 -188 -26 -43
-47 -82 -47 -86 0 -4 -13 -25 -28 -46 -16 -21 -31 -47 -35 -56 -3 -10 -34 -61
-67 -115 -67 -107 -112 -149 -198 -182 -52 -21 -65 -21 -968 -21 -826 0 -919
2 -950 16 -19 9 -41 26 -49 38 -20 27 -19 100 0 116 8 7 15 17 15 22 0 11 29
60 88 148 17 27 32 53 32 58 0 4 12 24 26 43 14 19 29 43 34 54 13 33 75 121
108 153 44 43 93 64 181 77 84 12 1748 12 1811 0z"/>
<path d="M5380 845 c-30 -7 -78 -14 -107 -14 -28 -1 -64 -6 -80 -12 -15 -6
-66 -15 -113 -20 -47 -4 -114 -13 -150 -18 -36 -6 -87 -11 -115 -11 -27 0 -56
-4 -64 -9 -19 -12 -7 -39 21 -51 13 -5 52 -27 88 -49 59 -36 67 -38 90 -26 14
7 45 20 70 30 25 9 59 23 75 29 17 7 57 21 90 31 33 9 69 21 80 26 11 4 43 13
70 19 61 13 172 41 263 66 7 2 10 8 7 14 -8 14 -157 10 -225 -5z"/>
<path d="M4269 846 c-2 -3 -106 -8 -229 -11 -255 -7 -292 -17 -179 -45 24 -7
76 -16 114 -20 39 -5 95 -14 125 -20 171 -34 209 -43 250 -54 139 -41 168 -50
195 -61 17 -7 48 -18 70 -25 45 -14 179 -69 273 -111 34 -16 65 -29 69 -29 5
0 59 -25 204 -95 26 -13 61 -26 78 -30 26 -5 31 -4 31 12 0 14 -35 37 -132 87
-327 169 -390 203 -443 236 -28 18 -48 29 -176 98 -30 16 -70 39 -89 51 -26
15 -51 21 -96 21 -33 0 -63 -2 -65 -4z"/>
<path d="M4235 603 c-131 -49 -301 -149 -389 -227 -62 -56 -51 -62 117 -57
l147 3 68 67 c72 72 149 126 225 158 27 11 48 24 49 29 0 14 -92 42 -137 42
-22 0 -58 -7 -80 -15z"/>
<path d="M4530 537 c-14 -7 -58 -34 -99 -62 -41 -27 -82 -54 -91 -60 -39 -24
-94 -85 -85 -93 6 -6 67 -7 144 -3 107 5 135 9 139 21 6 18 97 109 132 132 21
13 23 19 14 35 -6 10 -26 21 -45 24 -19 3 -45 9 -59 12 -14 3 -36 0 -50 -6z"/>
<path d="M468 980 c-11 -26 -45 -147 -54 -190 -3 -14 -9 -34 -14 -45 -8 -19
-20 -60 -71 -237 -11 -40 -25 -81 -30 -90 -5 -10 -9 -27 -9 -39 0 -11 -5 -30
-12 -42 -16 -28 -38 -88 -38 -104 0 -25 49 -13 105 25 58 40 111 106 121 151
11 55 50 192 110 388 l19 62 270 3 c149 2 276 1 283 -1 17 -5 15 -46 -3 -61
-8 -7 -15 -22 -15 -34 0 -11 -7 -30 -15 -40 -8 -11 -15 -28 -15 -38 0 -16 9
-18 66 -18 84 0 100 9 109 62 4 24 14 55 21 70 8 15 14 51 14 81 0 43 -5 58
-22 74 -42 39 -89 43 -457 46 l-353 2 -10 -25z"/>
<path d="M1437 983 c-4 -3 -7 -16 -7 -28 0 -28 -36 -169 -50 -194 -5 -11 -10
-31 -10 -45 0 -14 -4 -27 -8 -30 -5 -3 -14 -30 -21 -60 -7 -31 -17 -58 -22
-61 -5 -4 -9 -16 -9 -28 0 -12 -6 -39 -14 -62 -7 -22 -21 -67 -31 -100 -9 -33
-24 -74 -32 -92 -8 -17 -13 -37 -11 -44 3 -9 100 -11 425 -10 391 2 424 4 458
21 43 22 105 87 105 111 0 8 4 19 9 25 5 5 13 29 19 54 6 25 15 59 21 75 5 17
17 57 26 90 9 33 23 75 31 93 8 18 14 41 14 52 0 10 5 22 11 25 5 4 9 14 7 23
-3 13 -39 15 -318 13 -173 -1 -331 -6 -350 -11 -36 -10 -130 -88 -130 -108 0
-17 44 -25 98 -18 26 3 148 6 272 7 l225 1 3 -22 c2 -13 -1 -32 -6 -44 -15
-32 -42 -116 -52 -162 -5 -22 -14 -52 -21 -67 l-12 -27 -276 0 c-152 0 -293
-3 -313 -6 -38 -7 -38 -6 -38 28 0 19 4 38 9 44 6 5 14 27 20 49 5 22 14 54
19 70 32 96 42 133 42 162 0 17 4 34 9 38 5 3 13 20 17 37 3 18 13 43 22 56
13 20 13 27 -3 63 -30 65 -100 110 -128 82z"/>
<path d="M2487 983 c-4 -3 -7 -19 -7 -34 0 -14 -6 -49 -14 -75 -8 -27 -22 -76
-31 -109 -8 -33 -20 -73 -26 -90 -6 -16 -15 -46 -19 -65 -31 -126 -48 -180
-91 -284 -16 -38 -29 -75 -29 -82 0 -23 35 -16 61 12 20 22 135 104 214 154
48 30 111 75 143 102 18 15 41 28 51 28 12 0 54 -41 107 -102 153 -179 187
-203 313 -213 77 -7 81 -7 81 13 0 11 -13 28 -28 39 -15 10 -87 81 -159 158
-72 77 -142 151 -157 164 -14 14 -26 28 -26 31 0 4 43 34 96 66 128 79 132 82
212 136 39 27 93 60 121 74 41 21 51 32 51 52 0 22 -3 24 -32 18 -18 -4 -69
-12 -113 -17 -95 -13 -165 -44 -315 -144 -58 -38 -113 -74 -122 -80 -30 -17
-102 -68 -134 -95 -47 -38 -74 -55 -87 -55 -20 0 -19 34 2 76 12 22 21 46 21
53 0 7 7 28 16 45 9 18 19 61 22 96 4 62 4 64 -31 99 -34 33 -73 46 -90 29z"/>
<path d="M566 641 c-3 -5 31 -49 75 -97 186 -204 264 -284 274 -284 6 0 17 -6
23 -12 11 -11 119 -36 177 -41 43 -4 22 33 -72 129 -54 55 -132 135 -175 179
-89 93 -102 105 -121 105 -7 0 -22 7 -33 15 -21 16 -139 21 -148 6z"/>
</g>
</svg>
