<?xml version="1.0" standalone="no"?>
<!DOCTYPE svg PUBLIC "-//W3C//DTD SVG 20010904//EN"
 "http://www.w3.org/TR/2001/REC-SVG-20010904/DTD/svg10.dtd">
<svg version="1.0" xmlns="http://www.w3.org/2000/svg"
  width="175.000000pt" height="150.000000pt" viewBox="0 0 900.000000 237.000000"
 preserveAspectRatio="xMidYMid meet">
<metadata>
Created by potrace 1.10, written by Peter Selinger 2001-2011
</metadata>
<g transform="translate(0.000000,237.000000) scale(0.100000,-0.100000)"
fill="#f50202" stroke="none">
<path d="M705 2319 c-33 -5 -98 -13 -145 -19 -83 -11 -109 -16 -200 -40 -25
-6 -61 -15 -80 -20 -110 -26 -176 -69 -215 -140 l-30 -55 2 -265 c3 -379 21
-635 54 -765 6 -22 14 -56 19 -75 4 -19 18 -60 30 -90 11 -30 27 -71 34 -92
12 -34 57 -113 98 -172 14 -20 103 -132 121 -151 9 -11 34 -39 54 -63 20 -24
86 -87 147 -140 60 -53 121 -107 134 -119 47 -43 130 -93 156 -93 13 0 28 -4
31 -10 8 -13 90 -13 134 1 120 38 168 75 423 331 143 143 206 223 277 350 34
62 89 201 97 248 3 14 11 48 19 75 41 149 53 287 61 716 6 297 6 306 -15 345
-27 52 -69 97 -106 116 -58 30 -106 48 -126 48 -11 0 -30 5 -42 12 -12 6 -42
15 -67 19 -25 4 -106 17 -180 29 -109 18 -183 23 -380 26 -135 1 -272 -2 -305
-7z m560 -98 c157 -27 384 -77 447 -97 29 -9 59 -29 78 -50 l30 -35 0 -307 c0
-311 -12 -478 -46 -657 -16 -81 -46 -188 -62 -222 -5 -10 -24 -49 -43 -88 -18
-38 -66 -113 -105 -165 -91 -121 -354 -378 -495 -484 -44 -32 -109 -37 -157
-12 -77 40 -383 322 -487 449 -75 91 -127 179 -179 302 -72 169 -106 443 -109
872 l-2 312 34 35 c37 38 91 58 246 90 44 9 98 21 120 27 22 5 74 14 115 19
41 6 91 14 110 19 48 13 419 7 505 -8z"/>
<path d="M897 2134 c-4 -4 -53 -13 -109 -20 -160 -20 -251 -35 -270 -45 -9 -5
-32 -9 -52 -9 -19 0 -47 -5 -63 -11 -15 -6 -50 -15 -77 -20 -86 -16 -86 -16
-85 -223 0 -100 6 -243 12 -319 l12 -139 324 1 c178 0 325 2 328 4 8 9 4 770
-5 779 -4 4 -11 5 -15 2z m-217 -144 c0 -5 -7 -10 -15 -10 -8 0 -15 5 -15 10
0 6 7 10 15 10 8 0 15 -4 15 -10z m-119 -23 c-1 -12 -15 -9 -19 4 -3 6 1 10 8
8 6 -3 11 -8 11 -12z m-75 -72 l93 -46 92 46 c93 45 139 56 139 33 5 -180 5
-328 -1 -345 -4 -12 -18 -24 -30 -28 -12 -4 -55 -23 -95 -41 -103 -49 -124
-46 -284 35 l-55 28 -3 168 c-3 223 -4 223 144 150z"/>
<path d="M418 1828 c-4 -10 -3 -101 2 -193 0 -14 96 -59 113 -52 10 4 13 25
10 94 -3 48 -6 93 -8 100 -3 10 -95 63 -109 63 -2 0 -6 -6 -8 -12z"/>
<path d="M665 1807 l-40 -23 -3 -98 c-1 -55 1 -103 5 -107 4 -4 32 6 61 22
l52 31 0 99 c0 113 -4 116 -75 76z"/>
<path d="M1032 2123 c-5 -10 -6 -56 -2 -103 3 -47 5 -139 4 -205 0 -66 -2
-196 -4 -288 -1 -93 1 -171 4 -174 3 -4 154 -7 336 -7 l330 -1 1 65 c1 36 3
85 5 110 2 25 6 95 9 155 3 61 8 151 11 202 l7 92 -31 30 c-20 21 -40 31 -60
31 -16 0 -46 7 -65 15 -20 8 -52 15 -70 15 -19 0 -51 7 -70 15 -20 8 -54 15
-75 15 -22 0 -52 4 -68 10 -16 5 -69 14 -119 19 -49 6 -100 13 -112 17 -15 4
-24 0 -31 -13z m213 -123 c24 -9 26 -14 20 -43 -8 -36 -20 -47 -52 -47 -14 0
-23 -7 -25 -21 -2 -12 -11 -27 -21 -33 -15 -9 -21 -7 -33 8 -18 26 -18 80 1
96 8 7 15 21 15 31 0 15 7 19 34 19 19 0 47 -5 61 -10z m145 -60 c11 -7 15
-27 15 -67 l0 -58 64 0 c53 0 66 -3 77 -20 12 -18 11 -24 -2 -44 -15 -20 -23
-22 -78 -19 l-61 3 4 -122 3 -123 -27 -10 c-18 -7 -33 -7 -47 1 -20 11 -20 16
-13 130 l7 119 -71 0 c-68 0 -71 1 -77 27 -11 42 6 58 67 59 30 1 59 2 66 3 8
1 11 20 10 56 -2 67 21 92 63 65z m198 -13 c21 -22 28 -87 9 -87 -6 0 -34 15
-65 36 -2 1 -7 19 -12 38 -8 34 -7 36 19 36 16 0 37 -10 49 -23z m12 -227 c16
-9 18 -20 14 -107 -4 -88 -7 -100 -29 -120 -15 -14 -37 -23 -57 -23 -55 0 -61
9 -49 75 6 32 15 63 20 69 5 6 12 22 16 36 6 22 52 80 63 80 2 0 12 -4 22 -10z
m-397 -47 c32 -51 46 -100 51 -173 1 -23 -2 -25 -44 -25 -39 0 -47 4 -68 35
-20 30 -23 44 -20 101 5 103 39 128 81 62z"/>
<path d="M264 1236 c-3 -8 2 -30 10 -51 9 -21 16 -53 16 -72 0 -18 7 -50 15
-70 8 -19 15 -44 15 -54 0 -10 6 -33 14 -51 8 -18 26 -62 41 -98 53 -131 173
-276 402 -488 62 -57 113 -108 113 -114 0 -5 10 -8 23 -6 18 2 21 8 19 33 -2
17 -4 244 -6 505 l-2 475 -328 2 c-265 2 -328 0 -332 -11z m301 -136 c0 -69
20 -114 53 -122 9 -3 57 -1 106 4 96 9 116 3 116 -36 0 -42 -13 -48 -86 -45
l-69 4 -3 -30 c-2 -26 3 -33 41 -53 54 -28 74 -70 80 -160 3 -57 1 -65 -18
-78 -17 -11 -29 -12 -49 -5 -25 10 -26 14 -26 85 0 99 -9 106 -142 106 -96 0
-99 1 -110 26 -18 39 7 53 84 47 45 -5 62 -3 69 8 17 28 9 50 -23 64 -60 25
-89 66 -97 136 -12 96 -1 122 49 117 24 -3 25 -6 25 -68z m131 22 c26 -17 36
-53 24 -83 -11 -25 -18 -29 -51 -29 -41 0 -59 18 -59 61 0 43 52 74 86 51z"/>
<path d="M1039 1240 c-1 -3 -2 -216 -3 -475 -1 -259 -5 -482 -10 -497 -6 -22
-4 -29 8 -34 12 -5 42 18 104 78 48 46 131 126 184 178 144 138 236 271 288
415 20 53 60 212 60 236 0 12 5 37 12 56 6 18 9 35 6 38 -7 8 -647 12 -649 5z
m242 -87 c13 -15 69 -43 87 -43 5 0 29 14 54 30 34 23 53 29 72 24 32 -8 40
-44 34 -157 -5 -92 -23 -138 -70 -178 -24 -20 -31 -34 -30 -59 2 -75 -62 -172
-125 -189 -94 -26 -182 59 -212 207 -15 74 -14 117 5 133 14 11 22 10 55 -9
41 -24 69 -28 69 -11 0 6 -7 32 -16 58 -20 54 -12 171 13 196 19 20 47 19 64
-2z m-97 -639 c3 -9 6 -19 6 -23 0 -11 -50 -32 -61 -26 -17 11 -9 46 14 55 31
12 34 12 41 -6z"/>
<path d="M1274 1046 c-7 -19 1 -94 11 -104 4 -4 15 3 26 16 26 33 56 21 69
-29 22 -81 67 -31 73 81 2 43 1 45 -23 42 -45 -7 -105 -5 -127 3 -17 5 -24 3
-29 -9z"/>
<path d="M1270 838 c-24 -13 -45 -17 -68 -13 -45 8 -51 -14 -21 -77 25 -54 70
-98 99 -98 30 0 57 44 64 105 12 103 -4 121 -74 83z"/>
<path d="M3178 2059 c-27 -15 -100 -127 -96 -147 2 -9 14 -19 27 -20 18 -3 38
11 87 65 35 37 64 75 64 84 0 28 -48 38 -82 18z"/>
<path d="M2500 2026 c-92 -26 -140 -71 -147 -140 -12 -102 21 -151 152 -230
44 -27 97 -64 118 -84 33 -32 37 -42 37 -84 0 -41 -5 -54 -33 -85 -33 -35 -36
-36 -105 -36 -54 0 -77 4 -91 17 -10 9 -31 18 -47 19 -28 2 -29 0 -29 -43 l0
-44 55 -18 c118 -36 215 -16 291 62 51 52 65 97 53 171 -9 52 -75 121 -172
179 -37 22 -83 55 -101 74 -29 30 -32 38 -29 82 3 42 7 51 37 71 40 27 121 31
161 8 39 -22 67 -19 74 9 9 38 -9 76 -37 76 -13 0 -51 2 -83 5 -34 2 -78 -1
-104 -9z"/>
<path d="M4343 2016 c-24 -21 -26 -27 -18 -52 6 -16 23 -35 38 -42 24 -12 32
-11 52 2 42 28 49 52 25 86 -26 37 -59 39 -97 6z"/>
<path d="M5770 2020 c-36 -36 -20 -84 33 -103 30 -11 67 21 67 58 0 58 -60 85
-100 45z"/>
<path d="M3457 1843 c-12 -11 -8 -49 9 -89 14 -33 16 -69 12 -241 -3 -110 -3
-205 1 -210 11 -17 42 -23 62 -13 18 10 19 23 19 202 0 188 0 192 25 224 29
38 83 59 130 50 59 -11 60 -17 60 -255 l0 -216 30 -5 c56 -11 55 -13 55 191 0
169 2 194 20 228 32 64 127 81 180 34 3 -3 7 -104 10 -226 l5 -222 43 -3 42
-3 0 216 c0 180 -3 221 -16 248 -57 112 -192 130 -272 35 l-25 -29 -36 34
c-47 45 -72 57 -116 57 -37 0 -73 -18 -114 -57 -31 -30 -39 -29 -47 5 -4 15
-11 33 -17 40 -10 13 -49 17 -60 5z"/>
<path d="M4368 1843 c-10 -2 -20 -14 -23 -26 -3 -12 -4 -134 -3 -271 l3 -250
28 -7 c59 -16 58 -22 55 280 -3 268 -4 276 -23 278 -11 0 -28 -1 -37 -4z"/>
<path d="M4603 1843 c-18 -7 -16 -38 3 -75 14 -26 15 -64 13 -247 l-4 -215 25
-13 c31 -16 47 -16 56 -2 3 6 6 95 5 198 l-2 186 36 42 c29 34 44 43 80 49 53
8 97 -8 114 -39 7 -14 12 -98 14 -227 l2 -205 40 0 40 0 2 215 3 215 -28 40
c-34 49 -95 85 -145 85 -44 0 -106 -26 -125 -52 -18 -24 -52 -24 -52 1 0 37
-39 60 -77 44z"/>
<path d="M5289 1831 c-64 -23 -79 -38 -79 -77 0 -29 3 -34 24 -34 13 0 34 9
48 19 29 23 110 35 153 23 38 -11 75 -65 75 -108 0 -19 -3 -34 -7 -35 -5 0
-51 -2 -103 -3 -78 -1 -103 -6 -139 -25 -66 -35 -83 -56 -95 -121 -13 -74 24
-136 103 -171 75 -33 148 -21 209 34 l23 21 25 -32 c18 -23 34 -32 55 -32 33
0 38 19 17 67 -7 16 -14 103 -18 208 -6 207 -9 217 -94 260 -59 30 -127 32
-197 6z m205 -277 c23 -9 21 -76 -3 -122 -25 -48 -51 -63 -122 -69 -54 -5 -60
-4 -88 25 -23 22 -31 40 -31 64 1 60 40 88 140 98 36 4 70 8 77 9 6 0 18 -2
27 -5z"/>
<path d="M5791 1837 l-24 -12 -1 -258 c-1 -188 2 -261 11 -269 6 -5 27 -8 45
-6 l33 3 3 265 c2 240 1 266 -15 278 -21 15 -22 15 -52 -1z"/>
<path d="M6025 1813 c5 -21 9 -140 11 -266 1 -125 5 -234 8 -242 7 -18 71 -20
82 -3 5 7 7 94 5 194 -2 123 1 189 9 204 17 31 70 60 111 60 32 0 37 4 42 26
16 87 -65 87 -145 1 l-27 -29 -16 38 c-18 43 -30 54 -64 54 -22 0 -23 -3 -16
-37z"/>
<path d="M6520 1829 c-51 -27 -94 -71 -119 -121 -17 -37 -21 -62 -21 -151 0
-112 10 -144 64 -206 59 -67 207 -92 296 -48 49 24 60 49 36 82 -14 19 -16 19
-48 4 -65 -31 -91 -36 -138 -24 -64 16 -85 33 -111 83 -17 35 -20 51 -12 71 5
14 15 25 21 23 7 -1 77 -5 155 -8 178 -7 177 -8 158 104 -20 116 -40 149 -123
192 -46 25 -111 24 -158 -1z m161 -99 c25 -30 46 -101 34 -120 -3 -5 -47 -8
-98 -8 -50 1 -102 -2 -114 -6 -18 -6 -25 -2 -34 17 -9 19 -7 32 9 63 20 40 55
77 82 87 8 4 33 5 55 2 30 -3 47 -12 66 -35z"/>
<path d="M3025 1826 c-36 -16 -91 -70 -113 -111 -21 -40 -28 -191 -12 -262 30
-134 182 -205 337 -156 l53 17 0 43 c0 47 -12 54 -53 31 -72 -41 -160 -36
-210 11 -32 29 -57 81 -57 116 l0 24 173 -2 172 -2 3 48 c3 47 -26 154 -51
188 -7 9 -30 28 -51 43 -32 21 -50 26 -100 26 -34 -1 -74 -7 -91 -14z m160
-86 c25 -23 51 -100 42 -124 -5 -11 -30 -14 -126 -14 -67 0 -124 4 -127 9 -8
13 15 79 38 109 41 53 127 63 173 20z"/>
<path d="M3526 1099 c-38 -30 -36 -79 5 -113 36 -30 40 -31 78 -11 48 24 56
81 16 120 -30 30 -64 32 -99 4z"/>
<path d="M8359 1091 c-43 -44 -35 -87 22 -116 34 -18 61 -13 89 18 28 29 25
66 -7 99 -34 36 -67 36 -104 -1z"/>
<path d="M2515 1071 c-122 -32 -186 -130 -160 -243 14 -66 73 -121 185 -173
96 -46 110 -63 100 -128 -4 -26 -9 -49 -11 -50 -59 -47 -123 -50 -199 -8 -30
16 -58 27 -62 25 -4 -3 -8 -34 -8 -70 0 -64 1 -65 33 -78 31 -13 172 -13 255
0 34 5 104 61 123 97 6 10 15 46 19 78 17 116 -25 176 -174 250 -76 38 -126
81 -126 109 0 10 12 33 27 50 25 30 28 31 92 27 36 -2 80 -10 98 -17 39 -17
44 -13 53 46 11 71 -4 83 -120 89 -52 2 -108 1 -125 -4z"/>
<path d="M5357 1070 l-179 -5 1 -357 c0 -197 0 -363 1 -368 0 -7 27 -10 73 -8
l72 3 0 157 c0 91 4 161 10 167 6 6 45 6 108 -1 111 -12 117 -9 122 47 6 67 5
68 -124 64 l-116 -4 -3 90 c-4 111 -1 114 100 104 40 -4 90 -8 111 -8 l38 -1
-3 62 c-2 48 -7 63 -18 63 -8 1 -95 -2 -193 -5z"/>
<path d="M4514 1015 c-80 -25 -87 -32 -81 -79 8 -55 -1 -66 -49 -63 -39 2 -39
2 -42 -37 -4 -48 8 -60 56 -61 l37 0 0 -170 c0 -144 3 -175 18 -202 26 -48 59
-65 138 -71 85 -6 109 9 109 69 l0 38 -57 3 -58 3 -3 160 c-1 87 -1 164 2 171
3 9 15 9 44 1 50 -13 72 1 72 47 0 51 -11 59 -69 51 l-51 -7 0 81 c0 89 2 87
-66 66z"/>
<path d="M3010 872 l-55 -18 -3 -52 c-3 -58 14 -77 46 -50 30 25 72 38 121 38
39 0 53 -5 74 -26 65 -65 45 -94 -67 -94 -146 0 -227 -64 -229 -179 -1 -92 59
-150 167 -158 57 -4 64 -2 100 26 47 37 62 39 70 6 7 -28 34 -38 92 -33 37 3
39 5 36 33 -2 17 -7 116 -10 221 -7 188 -8 192 -35 227 -56 73 -183 97 -307
59z m210 -277 c10 -12 10 -21 1 -41 -6 -14 -11 -35 -11 -47 0 -57 -74 -100
-131 -77 -43 18 -64 63 -48 101 14 35 37 49 99 65 63 16 76 16 90 -1z"/>
<path d="M3784 875 c-3 -8 -2 -23 2 -32 5 -10 11 -128 14 -263 l5 -245 70 0
70 0 0 195 c0 191 1 196 23 218 36 36 85 40 116 9 l25 -25 -1 -189 c-1 -104 2
-195 6 -201 9 -15 122 -16 131 -2 4 6 6 98 5 204 -1 164 -4 201 -20 246 -11
29 -21 53 -22 55 -96 65 -171 61 -245 -13 -25 -25 -43 -22 -43 7 0 27 -18 38
-78 45 -42 5 -53 4 -58 -9z"/>
<path d="M5666 881 c-4 -6 0 -24 9 -40 12 -25 15 -73 15 -271 l0 -240 64 0
c37 0 68 5 72 11 4 6 7 89 8 184 1 158 3 175 21 195 30 33 56 44 98 41 l37 -2
0 66 0 65 -37 0 c-40 0 -98 -37 -108 -70 -9 -28 -35 -25 -35 4 0 31 -25 56
-54 56 -13 0 -37 3 -54 6 -17 3 -32 1 -36 -5z"/>
<path d="M6165 871 l-50 -18 -3 -56 c-2 -31 1 -57 6 -57 5 0 29 11 53 23 24
13 65 26 91 29 40 5 51 2 78 -21 23 -19 32 -35 33 -61 l2 -35 -95 -6 c-107 -7
-152 -22 -195 -68 -28 -30 -30 -38 -30 -108 l0 -75 43 -38 c37 -33 52 -39 106
-45 69 -8 92 -1 138 43 15 14 29 24 30 21 2 -2 10 -17 18 -34 14 -27 21 -30
74 -33 l58 -3 -7 38 c-4 21 -9 112 -11 203 -4 198 -8 222 -40 257 -58 62 -190
82 -299 44z m213 -278 c9 -18 8 -31 -8 -68 -5 -11 -11 -32 -14 -47 -5 -20 -17
-30 -49 -43 -40 -15 -47 -15 -80 -1 -37 15 -41 23 -37 81 2 38 36 75 69 76 14
0 35 4 46 9 33 14 64 11 73 -7z"/>
<path d="M6634 875 c-19 -13 -19 -14 0 -48 16 -31 18 -57 16 -253 -1 -121 -2
-225 -1 -231 1 -18 125 -18 139 0 6 8 6 70 1 180 -8 142 -7 172 6 197 30 58
91 77 135 42 23 -18 23 -23 24 -223 l1 -204 64 -3 c35 -2 67 1 71 5 4 4 5 107
1 228 -8 249 -14 271 -81 305 -23 12 -59 20 -86 20 -39 0 -54 -6 -90 -35 -50
-42 -60 -43 -68 -10 -4 15 -15 26 -29 29 -67 14 -86 14 -103 1z"/>
<path d="M7400 875 c-14 -8 -32 -14 -41 -15 -24 0 -91 -69 -117 -118 -29 -56
-32 -204 -4 -255 45 -85 107 -137 161 -137 29 0 35 -17 16 -46 -9 -14 -15 -35
-13 -47 3 -19 8 -22 44 -19 50 4 72 -15 54 -48 -10 -19 -18 -21 -78 -18 -57 3
-67 1 -70 -15 -7 -35 16 -47 93 -47 51 0 83 5 103 17 29 16 62 69 62 96 -1 25
-42 60 -78 66 -31 5 -37 10 -37 31 0 24 3 25 48 23 73 -4 86 7 83 69 -3 57
-14 67 -48 44 -13 -10 -43 -16 -75 -16 -98 0 -152 79 -139 203 7 68 35 112 86
134 31 13 41 13 93 -3 68 -20 77 -15 77 49 0 34 -4 40 -35 53 -44 18 -152 18
-185 -1z"/>
<path d="M7870 872 c-64 -31 -87 -52 -116 -105 -27 -48 -29 -59 -28 -158 1
-87 4 -114 22 -151 39 -80 90 -113 191 -123 116 -12 168 10 235 98 50 65 56
248 10 338 -16 32 -74 89 -90 89 -6 0 -25 7 -40 15 -39 20 -139 18 -184 -3z
m138 -88 c42 -29 62 -86 62 -175 0 -138 -41 -193 -129 -174 -36 8 -56 37 -66
95 -4 25 -11 52 -15 60 -8 16 18 130 38 167 10 18 44 36 82 42 3 1 16 -6 28
-15z"/>
<path d="M8733 869 c-74 -34 -116 -108 -98 -176 9 -39 62 -84 152 -130 77 -40
78 -40 78 -79 l0 -39 -74 -3 c-57 -2 -77 1 -91 13 -10 9 -29 15 -42 13 -20 -3
-23 -9 -26 -55 -4 -65 10 -74 119 -80 100 -5 155 10 196 53 17 19 36 34 42 34
7 0 11 27 11 70 0 52 -3 70 -13 70 -8 0 -32 17 -53 38 -22 20 -65 50 -96 65
-30 15 -61 38 -68 51 -30 57 45 93 128 62 63 -23 84 1 65 76 -10 40 -156 51
-230 17z"/>
<path d="M3507 873 c-2 -4 -4 -127 -3 -273 l1 -265 67 -3 c56 -2 68 0 75 15 4
10 6 133 3 273 l-5 255 -67 3 c-36 2 -68 -1 -71 -5z"/>
<path d="M8340 870 c-4 -86 0 -522 5 -530 8 -13 132 -13 140 1 4 6 7 125 7
264 0 139 -3 258 -7 264 -8 14 -145 15 -145 1z"/>
<path d="M4791 681 c-9 -20 -8 -72 2 -88 12 -18 230 -18 245 0 11 13 10 83 -2
95 -4 4 -59 7 -122 8 -96 0 -116 -2 -123 -15z"/>
</g>
</svg>
