<?xml version="1.0" standalone="no"?>
<!DOCTYPE svg PUBLIC "-//W3C//DTD SVG 20010904//EN"
 "http://www.w3.org/TR/2001/REC-SVG-20010904/DTD/svg10.dtd">
<svg version="1.0" xmlns="http://www.w3.org/2000/svg"
 width="175.000000pt" height="150.000000pt" viewBox="0 0 175.000000 62.000000"
 preserveAspectRatio="xMidYMid meet">
<metadata>
Created by potrace 1.10, written by Peter Selinger 2001-2011
</metadata>
<g transform="translate(0.000000,62.000000) scale(0.100000,-0.100000)"
fill="#e7761e" stroke="none">
<path d="M106 568 c-7 -13 -16 -49 -19 -81 -5 -47 -11 -62 -31 -78 -33 -26
-33 -52 1 -79 21 -16 35 -20 62 -15 34 6 34 6 27 -26 -10 -51 14 -69 89 -69
71 0 85 10 85 62 0 37 1 38 34 38 31 0 36 -4 46 -35 17 -50 51 -65 154 -65 91
0 132 12 141 42 4 10 10 18 15 18 5 0 7 -6 4 -14 -3 -7 2 -21 11 -30 20 -19
125 -22 143 -4 9 9 15 9 24 0 15 -15 130 -16 145 -1 8 8 13 8 17 0 9 -14 225
-15 260 -1 15 5 31 21 38 35 14 30 24 32 33 5 11 -35 57 -50 156 -50 90 0 91
0 124 33 40 40 55 89 55 185 0 124 -30 152 -162 152 -81 0 -128 -17 -147 -53
l-14 -27 -19 30 c-25 42 -53 50 -173 50 -81 0 -107 -3 -119 -16 -9 -8 -16 -20
-16 -26 0 -7 -12 -1 -26 13 -24 22 -35 24 -145 27 -85 3 -124 0 -135 -9 -11
-9 -18 -9 -26 -1 -18 18 -123 15 -138 -3 -12 -14 -15 -14 -30 0 -19 17 -125
21 -135 5 -4 -7 -12 -7 -25 0 -10 5 -80 10 -154 10 -130 0 -136 -1 -150 -22z
m284 -40 c0 -37 -12 -48 -50 -48 -43 0 -45 -3 -55 -110 -10 -108 -9 -105 -56
-105 l-41 0 6 65 c4 36 10 84 13 108 l6 42 -42 0 c-42 0 -46 5 -35 45 5 19 14
20 130 20 109 0 124 -2 124 -17z m150 1 c0 -9 -5 -53 -11 -99 -14 -100 -12
-103 89 -97 39 2 72 1 72 -3 0 -4 -9 -19 -21 -34 -20 -25 -24 -26 -120 -26
-97 0 -100 1 -109 25 -8 22 3 198 15 240 1 6 21 10 44 10 31 0 41 -4 41 -16z
m167 -27 c-2 -24 -6 -45 -8 -47 -2 -2 -22 -5 -44 -7 l-40 -3 4 45 c1 25 4 47
6 50 2 3 22 5 45 5 l42 0 -5 -43z m310 26 c18 -15 16 -79 -3 -106 -15 -22 -19
-22 -240 -22 -143 0 -224 4 -224 10 0 6 70 10 189 10 163 0 190 2 195 16 13
35 7 44 -34 44 -33 0 -40 -3 -40 -19 0 -16 -7 -19 -42 -18 l-43 2 4 45 c1 25
4 47 6 50 6 10 220 -1 232 -12z m321 0 c25 -25 8 -108 -23 -108 -21 0 -19 -13
5 -28 27 -17 26 -64 -2 -96 -21 -23 -31 -25 -130 -28 -126 -4 -115 -20 -93
142 8 58 15 111 15 118 0 17 211 17 228 0z m326 -10 c28 -40 13 -174 -25 -223
-19 -24 -26 -25 -114 -25 -116 0 -120 5 -112 120 5 76 25 133 49 143 7 3 52 6
100 6 79 1 88 -1 102 -21z m-1484 -108 c0 -5 -13 -10 -29 -10 -17 0 -33 5 -36
10 -4 6 8 10 29 10 20 0 36 -4 36 -10z m240 0 c0 -5 -25 -10 -55 -10 -30 0
-55 5 -55 10 0 6 25 10 55 10 30 0 55 -4 55 -10z m-240 -40 c0 -5 -25 -10 -55
-10 -30 0 -55 5 -55 10 0 6 25 10 55 10 30 0 55 -4 55 -10z m235 0 c-3 -5 -31
-10 -61 -10 -30 0 -54 5 -54 10 0 6 27 10 61 10 37 0 58 -4 54 -10z m593 -52
l3 -58 -46 0 -45 0 0 50 0 50 -190 0 c-122 0 -190 4 -190 10 0 7 80 9 233 8
l232 -3 3 -57z m-158 13 c0 -5 -3 -23 -6 -40 -6 -29 -9 -31 -51 -31 -42 0 -45
2 -39 23 3 12 6 30 6 40 0 14 9 17 45 17 25 0 45 -4 45 -9z"/>
<path d="M1187 462 c-5 -26 9 -35 45 -30 15 2 24 11 26 24 3 18 -3 22 -32 26
-30 3 -35 1 -39 -20z"/>
<path d="M1180 371 c0 -5 -3 -16 -6 -25 -5 -13 2 -16 35 -16 37 0 41 2 41 25
0 22 -4 25 -35 25 -19 0 -35 -4 -35 -9z"/>
<path d="M1506 449 c-3 -17 -6 -51 -6 -75 0 -43 0 -44 34 -44 19 0 37 4 41 10
3 5 8 39 12 75 l6 65 -40 0 c-37 0 -41 -2 -47 -31z"/>
<path d="M1003 145 c-3 -9 1 -21 10 -28 8 -7 17 -21 20 -32 3 -13 5 -8 6 13 1
22 -4 32 -14 32 -8 0 -15 5 -15 10 0 6 18 10 40 10 42 0 54 -14 20 -23 -16 -4
-20 -14 -20 -45 0 -42 -15 -65 -23 -37 -4 11 -5 10 -3 -2 1 -10 11 -19 24 -21
20 -3 22 1 22 42 0 35 4 46 15 46 21 0 31 30 14 41 -24 15 -89 11 -96 -6z"/>
<path d="M1258 153 c32 -6 27 -23 -8 -23 -20 0 -30 -5 -30 -15 0 -9 10 -15 26
-15 15 0 23 -4 19 -10 -4 -6 -16 -10 -28 -8 -14 2 -23 -3 -25 -14 -2 -11 3
-18 12 -18 9 0 16 5 16 10 0 6 10 10 21 10 17 0 20 5 16 21 -3 12 0 22 9 26
33 12 6 45 -34 42 -10 -1 -8 -4 6 -6z"/>
<path d="M1594 146 c-3 -8 -4 -25 -1 -38 3 -17 5 -15 6 10 0 17 6 32 11 32 6
0 8 -11 4 -25 -8 -32 3 -32 39 3 29 26 29 14 -1 -20 -12 -15 -12 -20 2 -40 20
-28 21 -44 1 -28 -10 8 -15 9 -15 2 0 -6 9 -16 20 -22 28 -15 39 14 15 40 -18
19 -17 21 3 43 37 39 19 75 -19 41 -19 -18 -21 -18 -30 -1 -12 21 -28 22 -35
3z"/>
<path d="M1476 128 c2 -13 2 -17 -2 -10 -3 6 -19 12 -35 12 -24 0 -29 -4 -30
-25 -1 -14 -2 -30 -3 -37 -1 -6 4 -13 9 -15 6 -2 12 9 13 24 3 35 7 38 37 25
21 -10 27 -9 31 3 7 18 -2 45 -15 45 -5 0 -7 -10 -5 -22z"/>
<path d="M1194 68 c1 -41 2 -43 38 -49 45 -7 69 4 50 23 -9 9 -12 9 -12 0 0
-7 -14 -12 -34 -12 -33 0 -35 2 -39 40 l-4 40 1 -42z"/>
<path d="M1382 80 c-2 -50 10 -64 54 -63 38 1 69 26 57 46 -3 5 -13 0 -23 -12
-12 -16 -25 -22 -46 -19 -25 3 -30 8 -35 43 l-6 40 -1 -35z"/>
<path d="M1610 68 c0 -34 -17 -45 -23 -16 -5 21 -5 20 -4 -2 2 -32 28 -37 45
-9 12 18 11 24 -2 37 -15 15 -16 14 -16 -10z"/>
</g>
</svg>
