<?xml version="1.0" standalone="no"?>
<!DOCTYPE svg PUBLIC "-//W3C//DTD SVG 20010904//EN"
 "http://www.w3.org/TR/2001/REC-SVG-20010904/DTD/svg10.dtd">
<svg version="1.0" xmlns="http://www.w3.org/2000/svg"
 width="175.000000pt" height="150.000000pt" viewBox="0 0 900.000000 363.000000"
 preserveAspectRatio="xMidYMid meet">
<metadata>
Created by potrace 1.10, written by Peter Selinger 2001-2011
</metadata>
<g transform="translate(0.000000,363.000000) scale(0.100000,-0.100000)"
fill="#000000" stroke="none">
<path d="M4065 3615 c-6 -9 -32 -19 -60 -24 -85 -14 -134 -51 -135 -100 0 -14
4 -50 10 -80 98 -566 125 -970 81 -1211 -30 -160 -54 -210 -125 -261 -33 -25
-49 -29 -103 -29 -104 0 -248 59 -382 158 -82 60 -82 38 1 -71 131 -172 350
-364 501 -439 127 -63 262 -103 328 -96 l34 3 6 65 c5 66 21 157 41 240 6 25
14 65 18 90 4 25 13 68 20 95 6 28 19 77 27 110 8 33 20 83 28 110 7 28 21 79
30 115 10 36 23 83 30 105 7 22 20 67 30 100 10 33 22 72 27 87 5 14 13 41 18
60 9 34 50 155 75 221 8 20 21 54 29 75 24 64 48 126 62 157 7 17 25 57 39 90
71 161 141 282 193 333 13 12 21 29 19 36 -7 16 -88 36 -155 37 -75 1 -137 14
-134 27 1 9 -63 12 -271 12 -233 0 -274 -2 -282 -15z"/>
<path d="M5295 3537 c-104 -13 -160 -35 -171 -69 -3 -10 2 -150 11 -311 18
-308 16 -620 -4 -817 -22 -206 -58 -374 -88 -411 -7 -8 -13 -20 -13 -25 0 -15
-49 -63 -93 -91 -39 -25 -50 -27 -142 -26 -94 1 -180 19 -243 53 -54 28 -106
48 -114 44 -14 -9 8 -37 109 -141 217 -221 428 -337 704 -388 137 -24 133 -26
140 75 8 115 27 277 44 381 8 47 15 97 15 110 0 23 19 124 42 219 6 25 14 65
19 90 5 25 18 77 29 115 12 39 25 86 30 105 4 19 18 60 30 90 12 30 25 66 30
80 13 41 30 79 97 215 69 140 67 138 131 233 23 35 42 65 42 68 0 5 146 197
215 283 19 24 35 50 35 57 0 8 -20 15 -57 18 -32 3 -94 11 -138 17 -208 29
-529 42 -660 26z"/>
<path d="M3120 3500 c-167 -14 -270 -58 -300 -130 -10 -23 -8 -35 11 -71 22
-45 171 -199 289 -301 120 -103 583 -444 633 -465 l28 -12 -22 32 c-13 18 -37
48 -55 68 -47 54 -116 160 -154 239 -21 43 -28 59 -63 140 -37 86 -68 232 -68
322 0 61 8 97 33 146 10 19 9 25 -2 32 -17 11 -200 10 -330 0z"/>
<path d="M336 958 c-9 -12 -16 -32 -16 -43 0 -11 -6 -29 -14 -40 -7 -11 -16
-31 -19 -45 -3 -14 -15 -50 -27 -80 -12 -30 -25 -68 -30 -85 -5 -16 -18 -55
-30 -85 -12 -30 -25 -68 -30 -85 -5 -16 -18 -55 -30 -85 -12 -30 -25 -68 -30
-85 -5 -16 -18 -55 -30 -85 -12 -30 -25 -68 -30 -85 -11 -40 -31 -96 -41 -117
-5 -10 -9 -22 -9 -28 0 -14 610 -7 665 7 49 13 104 33 129 45 26 13 41 -4 27
-30 -6 -11 -11 -23 -11 -26 0 -11 607 -6 662 5 207 42 336 123 388 242 46 107
65 157 80 212 5 17 18 55 30 85 12 30 25 66 30 80 11 35 36 94 81 195 13 28
44 71 70 97 26 26 44 49 41 52 -3 3 -112 6 -243 6 l-238 0 -17 -32 c-10 -18
-21 -46 -25 -63 -4 -16 -17 -55 -29 -85 -12 -30 -25 -68 -30 -85 -5 -16 -18
-55 -30 -85 -12 -30 -25 -68 -30 -85 -5 -16 -18 -55 -30 -85 -12 -30 -25 -68
-30 -85 -44 -158 -70 -188 -217 -241 -66 -24 -140 -29 -136 -9 3 12 49 143 98
280 20 55 40 114 45 130 4 17 18 55 30 85 12 30 25 69 30 85 5 17 18 55 30 85
12 30 25 69 29 85 4 17 13 41 20 54 26 48 17 51 -193 51 -145 0 -197 -3 -203
-12 -10 -16 -32 -73 -43 -113 -4 -16 -18 -55 -30 -85 -12 -30 -25 -68 -30 -85
-5 -16 -18 -55 -30 -85 -12 -30 -25 -68 -30 -85 -5 -16 -18 -55 -30 -85 -11
-30 -30 -84 -42 -120 -24 -73 -65 -124 -118 -146 -115 -49 -192 -66 -205 -45
-3 5 2 29 11 53 8 24 19 57 24 73 4 17 18 55 30 85 12 30 25 69 30 85 5 17 18
55 30 85 12 30 25 69 30 85 5 17 18 55 30 85 12 30 25 69 30 85 9 34 26 83 46
135 8 19 15 46 17 60 l2 25 -197 3 c-194 2 -197 2 -212 -20z"/>
<path d="M2705 975 c-5 -1 -50 -8 -100 -15 -261 -35 -403 -139 -455 -335 -5
-16 -18 -55 -30 -85 -12 -30 -25 -68 -30 -85 -5 -16 -18 -55 -30 -85 -12 -30
-25 -68 -30 -85 -8 -32 -21 -66 -51 -130 -17 -39 -30 -55 -93 -123 l-30 -32
246 0 246 0 16 47 c10 27 21 62 26 78 4 17 18 55 30 85 12 30 25 66 29 80 4
14 14 40 22 58 l13 32 128 0 c120 0 128 -1 128 -19 0 -11 -4 -22 -9 -25 -5 -3
-11 -18 -14 -33 -2 -16 -15 -53 -27 -83 -12 -30 -25 -69 -29 -85 -4 -17 -12
-39 -18 -50 -6 -11 -13 -35 -16 -52 l-6 -33 199 0 c183 0 200 1 209 18 12 23
39 96 51 137 4 17 18 55 30 85 12 30 25 69 30 85 5 17 18 55 30 85 12 30 25
69 30 85 5 17 18 55 30 85 12 30 25 69 30 85 5 17 18 55 30 85 12 30 26 69 30
85 5 17 16 50 25 74 9 24 14 50 11 58 -4 10 -65 13 -323 12 -175 0 -322 -2
-328 -4z m189 -155 c-1 -19 -11 -60 -23 -90 -13 -30 -27 -68 -31 -85 -26 -89
-43 -125 -64 -131 -11 -2 -68 -4 -126 -2 l-105 3 1 30 c1 17 11 55 24 85 12
30 24 64 27 76 6 25 58 83 93 103 35 20 150 51 180 48 22 -2 25 -7 24 -37z"/>
<path d="M3523 972 c-11 -7 -35 -65 -53 -127 -4 -16 -18 -55 -30 -85 -12 -30
-25 -68 -30 -85 -5 -16 -18 -55 -30 -85 -12 -30 -25 -68 -30 -85 -5 -16 -18
-55 -30 -85 -12 -30 -25 -68 -30 -85 -5 -16 -18 -55 -30 -85 -12 -30 -25 -68
-30 -85 -7 -26 -31 -91 -55 -147 -7 -17 7 -18 203 -18 191 0 210 2 215 17 3
10 15 43 27 73 12 30 25 69 30 85 5 17 18 55 30 85 12 30 25 69 29 85 4 17 15
45 25 63 l17 32 98 0 c82 0 103 -3 122 -19 l23 -18 -32 -94 c-18 -52 -37 -107
-42 -124 -4 -16 -18 -55 -30 -85 -12 -30 -24 -65 -27 -77 l-5 -23 257 0 c245
0 257 1 244 18 -61 75 -64 158 -8 252 17 29 49 103 49 113 0 22 -44 79 -69 88
l-26 10 25 20 c14 10 36 22 50 25 14 4 43 21 65 39 38 31 53 59 74 143 5 18
14 39 20 46 6 7 14 40 17 73 9 81 -14 108 -112 134 -62 17 -114 18 -489 19
-231 0 -425 -4 -432 -8z m598 -133 c24 -24 19 -44 -37 -177 -8 -18 -14 -39
-14 -47 0 -8 -18 -24 -40 -35 -31 -16 -59 -20 -136 -20 l-96 0 5 33 c2 17 10
48 17 67 7 19 19 53 27 75 8 22 23 59 34 83 l19 42 100 0 c87 0 103 -3 121
-21z"/>
<path d="M4808 948 c-9 -18 -18 -42 -21 -53 -3 -11 -15 -45 -27 -75 -12 -30
-25 -68 -30 -85 -5 -16 -18 -55 -30 -85 -12 -30 -25 -68 -30 -85 -5 -16 -18
-55 -30 -85 -12 -30 -25 -68 -30 -85 -5 -16 -18 -55 -30 -85 -12 -30 -25 -68
-30 -85 -5 -16 -18 -55 -30 -85 -12 -30 -25 -69 -30 -86 -4 -18 -10 -37 -14
-43 -5 -8 51 -11 203 -11 116 0 211 1 211 3 0 1 16 47 36 102 19 55 39 114 44
130 4 17 18 55 30 85 12 30 24 64 27 75 12 41 22 45 123 45 81 0 102 -3 121
-19 l24 -19 -23 -63 c-13 -35 -27 -77 -32 -94 -4 -16 -18 -55 -30 -85 -12 -30
-25 -69 -29 -85 -4 -17 -13 -40 -20 -53 l-12 -22 256 0 c141 0 255 3 253 8
-63 125 -62 169 4 285 48 83 34 156 -36 181 -26 9 -6 31 42 47 73 24 142 102
142 160 0 12 6 33 14 47 45 87 47 154 7 191 -58 54 -121 61 -588 61 l-418 0
-17 -32z m612 -106 c21 -17 22 -21 10 -58 -66 -206 -88 -226 -240 -222 -109 3
-108 2 -70 98 12 30 25 69 30 85 4 17 12 41 18 55 6 14 13 33 16 43 5 15 19
17 110 17 85 0 108 -3 126 -18z"/>
<path d="M6100 953 c-7 -16 -16 -39 -20 -53 -5 -14 -18 -50 -30 -80 -12 -30
-25 -68 -30 -85 -5 -16 -18 -55 -30 -85 -12 -30 -25 -68 -30 -85 -5 -16 -18
-55 -30 -85 -12 -30 -25 -68 -30 -85 -5 -16 -18 -55 -30 -85 -12 -30 -25 -68
-30 -85 -5 -16 -18 -55 -30 -85 -12 -30 -25 -69 -30 -86 -4 -18 -10 -37 -14
-43 -5 -8 50 -11 202 -11 l210 0 12 33 c39 105 61 168 70 205 4 18 12 38 18
45 5 7 12 23 15 37 6 27 32 102 46 135 5 11 12 29 14 40 3 11 15 45 27 75 12
30 25 69 30 85 5 17 18 55 30 85 12 30 25 69 30 85 11 41 31 96 42 118 5 10 6
22 3 27 -4 6 -88 10 -204 10 l-198 0 -13 -27z"/>
<path d="M7105 975 c-5 -1 -50 -9 -100 -15 -252 -35 -388 -127 -445 -300 -5
-14 -18 -50 -30 -80 -12 -30 -26 -68 -30 -85 -5 -16 -16 -50 -26 -75 -26 -69
-82 -226 -110 -309 -13 -40 -29 -82 -35 -92 -9 -18 1 -19 365 -19 231 0 395 4
428 11 141 29 268 81 321 132 39 37 79 122 107 222 5 17 18 55 30 85 12 30 25
69 30 85 5 17 18 55 30 85 12 30 25 69 30 85 13 46 50 151 75 212 9 23 14 46
11 52 -5 8 -106 11 -324 10 -174 0 -321 -2 -327 -4z m192 -137 c-13 -54 -27
-97 -47 -148 -12 -30 -26 -68 -30 -85 -5 -16 -25 -75 -45 -130 -20 -55 -40
-113 -45 -130 -41 -139 -81 -189 -177 -217 -59 -18 -163 -24 -163 -10 1 17 20
81 40 132 12 30 25 69 30 85 5 17 18 55 30 85 12 30 24 66 27 80 3 14 10 30
15 37 6 7 14 27 18 45 10 41 28 91 52 143 23 53 89 95 182 117 104 24 120 23
113 -4z"/>
<path d="M7934 943 c-9 -21 -20 -49 -24 -63 -5 -14 -18 -50 -30 -80 -12 -30
-25 -68 -30 -85 -5 -16 -18 -55 -30 -85 -12 -30 -25 -68 -30 -85 -5 -16 -18
-55 -30 -85 -12 -30 -26 -68 -30 -85 -10 -36 -37 -113 -49 -140 -5 -11 -12
-29 -14 -40 -3 -11 -15 -45 -27 -75 -12 -30 -25 -70 -30 -87 l-8 -33 208 0
208 0 16 48 c10 26 21 61 26 77 4 17 18 55 30 85 12 30 26 69 30 85 15 52 41
119 52 132 16 20 197 17 226 -3 26 -18 27 -31 8 -76 -23 -55 -63 -167 -76
-213 -5 -16 -17 -54 -28 -82 l-20 -53 255 0 255 0 -23 37 c-17 29 -23 54 -23
108 -1 68 10 103 50 155 17 22 27 76 20 107 -4 16 -21 38 -41 52 -19 13 -35
27 -35 30 0 8 65 41 81 41 32 0 109 89 109 125 0 8 6 29 14 47 8 18 17 45 21
61 3 15 12 27 20 27 11 0 15 13 15 55 0 30 -4 55 -9 55 -5 0 -22 11 -38 24
-60 50 -122 56 -581 56 l-422 0 -16 -37z m615 -99 c26 -18 25 -29 -9 -114 -12
-30 -26 -69 -31 -87 -5 -18 -24 -42 -42 -55 -27 -20 -47 -23 -134 -26 -79 -3
-104 -1 -108 10 -3 7 4 38 16 68 11 30 25 69 29 85 15 54 35 102 49 119 19 23
196 23 230 0z"/>
</g>
</svg>
