<?xml version="1.0" standalone="no"?>
<!DOCTYPE svg PUBLIC "-//W3C//DTD SVG 20010904//EN"
 "http://www.w3.org/TR/2001/REC-SVG-20010904/DTD/svg10.dtd">
<svg version="1.0" xmlns="http://www.w3.org/2000/svg"
 width="150.000000pt" height="150.000000pt" viewBox="0 0 300.000000 300.000000"
 preserveAspectRatio="xMidYMid meet">
<metadata>
Created by potrace 1.10, written by Peter Selinger 2001-2011
</metadata>
<g transform="translate(0.000000,300.000000) scale(0.100000,-0.100000)"
fill="#000000" stroke="none">
<path d="M1462 2868 c-7 -7 -12 -16 -12 -22 0 -5 -11 -24 -25 -42 -14 -18 -25
-37 -25 -43 0 -17 -27 -13 -34 4 -3 9 -19 15 -41 15 -22 0 -38 6 -41 15 -4 8
-16 15 -28 15 -12 0 -31 7 -42 15 -30 23 -54 19 -54 -10 0 -28 -12 -32 -30
-10 -16 19 -30 10 -30 -20 0 -13 -7 -28 -16 -33 -26 -14 -9 -58 31 -85 19 -12
39 -32 44 -44 21 -45 31 -24 31 62 0 47 4 85 10 85 5 0 24 -18 41 -40 37 -46
50 -49 72 -17 l15 22 27 -28 c27 -29 30 -28 81 10 36 27 44 28 44 9 0 -20 36
-126 54 -161 9 -16 16 -35 16 -41 0 -7 7 -14 15 -18 10 -4 15 -20 15 -50 l0
-46 46 7 47 6 -7 -45 c-6 -37 -3 -47 14 -63 25 -22 26 -62 4 -136 -9 -30 -16
-89 -16 -134 0 -58 -4 -85 -16 -98 -14 -16 -14 -19 6 -38 27 -25 28 -55 2 -62
-11 -3 -20 -12 -20 -21 0 -8 9 -20 20 -26 30 -16 24 -34 -15 -53 -44 -21 -47
-47 -5 -47 21 0 30 -5 30 -16 0 -11 -9 -15 -32 -14 -50 3 -52 2 -72 -31 -14
-23 -24 -29 -44 -27 -26 3 -27 5 -28 73 -1 39 -9 101 -18 138 -16 67 -13 141
5 153 17 10 9 23 -18 26 -26 3 -28 7 -33 53 -4 45 -7 50 -27 48 -17 -2 -23 2
-23 17 0 10 5 22 10 25 15 10 12 35 -5 35 -8 0 -15 -4 -15 -10 0 -5 -6 -10
-13 -10 -17 0 -47 52 -47 82 0 13 -4 28 -10 34 -9 9 8 75 23 90 13 14 7 51
-13 76 -11 14 -24 38 -30 52 -11 29 -30 27 -30 -4 0 -10 9 -35 21 -54 24 -41
24 -111 -1 -111 -9 0 -17 13 -20 33 -3 18 -9 33 -15 33 -14 -1 -19 -70 -6 -85
14 -17 -10 -68 -45 -95 -13 -10 -24 -27 -24 -36 0 -9 -10 -25 -22 -36 -48 -39
-51 -12 -7 54 35 53 34 78 -5 124 -22 26 -23 30 -11 73 16 57 18 172 3 181
-10 6 -14 23 -17 77 -1 27 -21 29 -28 2 -4 -13 -14 -20 -30 -20 -20 0 -24 -4
-18 -17 4 -10 11 -32 15 -48 4 -17 12 -41 19 -53 7 -13 11 -30 9 -40 -3 -14
-24 -16 -184 -17 -159 0 -184 -2 -201 -17 -11 -10 -24 -18 -30 -18 -16 0 -82
-73 -103 -115 -19 -38 -20 -60 -20 -741 0 -611 2 -703 15 -714 8 -7 15 -18 15
-24 0 -14 66 -86 78 -86 5 0 15 -6 21 -14 6 -8 24 -17 39 -21 15 -5 201 -11
413 -14 366 -6 388 -7 409 -26 32 -29 188 -27 248 4 39 20 56 21 281 21 298 0
314 3 396 85 51 51 62 68 72 115 17 78 18 1284 1 1355 -21 86 -65 145 -142
187 -40 22 -49 23 -356 24 -315 1 -315 1 -318 23 -2 12 -15 34 -29 49 -20 22
-24 34 -20 65 6 43 -6 47 -39 16 -28 -26 -51 -19 -59 18 -3 15 -13 50 -21 77
-7 26 -14 70 -14 96 0 27 -3 55 -6 64 -7 19 -35 21 -52 4z m-387 -558 c0 -39
3 -45 23 -48 32 -5 30 -42 -2 -42 -14 0 -28 5 -32 11 -4 6 -10 7 -15 2 -9 -9
5 -53 32 -109 9 -18 4 -31 -30 -81 -23 -33 -41 -64 -41 -68 0 -4 -6 -21 -14
-38 -28 -66 -39 -125 -43 -227 -5 -107 9 -186 43 -253 8 -16 14 -34 14 -42 0
-7 7 -18 15 -25 8 -7 15 -18 15 -26 0 -7 14 -28 30 -46 25 -27 30 -41 30 -85
0 -29 8 -69 18 -90 23 -49 75 -103 100 -103 11 0 34 -12 51 -26 27 -23 31 -32
31 -78 0 -61 18 -92 60 -101 34 -7 42 -17 35 -37 -5 -11 -17 -13 -58 -7 -29 4
-175 8 -326 8 l-273 1 -38 30 c-21 17 -48 49 -59 71 -21 40 -22 47 -21 670 1
594 3 632 20 673 21 47 42 68 92 96 29 17 53 19 188 17 l155 -2 0 -45z m1237
31 c41 -20 65 -42 90 -80 17 -24 18 -75 18 -693 l0 -667 -49 -50 -50 -51 -193
0 c-106 0 -202 -3 -213 -5 -11 -3 -27 -1 -35 4 -12 9 -12 14 2 44 9 18 35 55
58 82 36 42 41 53 37 82 -3 18 -13 40 -21 49 -30 30 -16 56 51 98 74 45 109
180 66 255 -17 29 -17 32 2 67 17 32 20 57 20 200 0 117 -4 166 -12 175 -7 7
-13 20 -13 28 0 31 -74 161 -123 216 -28 31 -82 78 -121 104 l-71 46 -3 58 -3
57 263 0 c237 0 267 -2 300 -19z m-1038 -187 c3 -9 6 -25 6 -37 0 -14 11 -28
30 -39 25 -14 30 -23 30 -57 0 -29 7 -48 25 -67 28 -30 32 -53 13 -73 -11 -10
-10 -15 3 -24 25 -18 40 -78 42 -165 3 -87 10 -103 64 -129 27 -12 39 -13 56
-4 12 6 37 13 55 16 19 2 39 11 46 21 10 13 17 14 34 5 32 -17 66 -13 80 9 9
15 19 19 37 14 22 -5 25 -3 25 20 0 15 -6 26 -13 26 -8 0 -19 12 -26 26 -12
27 -12 27 24 21 42 -7 44 1 10 41 -27 33 -31 52 -13 70 6 6 11 39 12 73 1 59
-1 63 -24 69 -22 5 -25 11 -23 46 3 77 16 154 25 154 16 0 135 -125 143 -150
4 -14 17 -36 30 -50 28 -31 51 -79 60 -122 3 -18 11 -45 17 -60 6 -16 7 -51 3
-83 -5 -45 -10 -55 -26 -55 -12 0 -19 -7 -19 -19 0 -11 -4 -23 -10 -26 -5 -3
-10 -15 -10 -26 0 -10 5 -19 10 -19 6 0 10 9 10 20 0 11 5 20 10 20 6 0 10 -9
10 -20 0 -11 -4 -20 -9 -20 -12 0 -11 -189 0 -196 17 -10 9 -38 -17 -65 -26
-27 -25 -49 2 -49 23 0 16 -19 -8 -25 -13 -2 -63 -7 -111 -9 -83 -4 -89 -3
-97 17 -7 18 -9 13 -9 -24 -1 -31 -8 -55 -22 -73 -12 -16 -18 -31 -13 -36 16
-15 54 9 86 55 31 44 50 53 77 36 10 -7 12 -20 6 -57 -10 -58 -8 -74 11 -95
21 -23 18 -36 -21 -82 -41 -50 -75 -113 -75 -141 0 -24 -48 -76 -70 -76 -9 0
-25 -7 -36 -15 -30 -23 -126 -20 -158 6 -14 11 -26 27 -26 34 0 20 -79 92
-122 113 -47 22 -67 62 -48 97 11 21 11 28 -1 42 -19 25 -39 61 -39 72 0 5 10
11 22 13 12 2 23 9 26 16 5 17 -38 15 -62 -3 -22 -17 -62 -20 -71 -6 -3 5 -1
12 5 16 21 13 10 43 -20 57 -26 11 -30 18 -30 50 0 20 -5 40 -11 44 -6 3 -8
17 -4 31 5 22 3 24 -16 18 -19 -6 -21 -5 -14 11 5 11 9 48 8 83 0 56 -3 66
-22 72 -17 7 -21 5 -21 -11 0 -11 5 -20 10 -20 6 0 10 -4 10 -10 0 -15 -12
-12 -39 9 -19 15 -26 32 -31 77 -4 34 -3 64 2 71 13 16 1 34 -20 31 -14 -2
-17 5 -16 37 3 117 21 201 60 278 8 16 14 33 14 38 0 11 70 106 97 131 10 9
24 24 31 32 16 20 38 20 46 0z"/>
<path d="M1132 1888 c6 -18 28 -21 28 -4 0 9 -7 16 -16 16 -9 0 -14 -5 -12
-12z"/>
<path d="M1135 1790 c-9 -14 4 -52 16 -45 12 8 12 42 0 50 -5 3 -12 1 -16 -5z"/>
<path d="M1836 1562 c-15 -22 -43 -48 -62 -58 -24 -13 -37 -28 -41 -47 -3 -16
-19 -38 -34 -50 -27 -19 -28 -22 -12 -39 15 -17 15 -19 -3 -32 -10 -8 -15 -18
-11 -23 5 -4 14 0 21 10 18 24 43 21 52 -5 11 -38 25 -50 40 -37 18 15 18 39
1 39 -7 0 -22 7 -33 15 -16 13 -17 16 -4 25 8 5 25 10 38 10 12 0 25 6 28 14
3 8 16 17 28 20 12 3 28 17 34 31 6 14 16 25 22 25 7 0 10 21 8 56 -2 44 -8
60 -24 71 -19 12 -23 11 -48 -25z"/>
<path d="M1222 1439 c3 -57 5 -64 24 -67 12 -2 32 -16 44 -33 20 -25 29 -29
74 -29 28 0 60 -6 71 -14 32 -21 75 -29 75 -13 0 35 -23 77 -45 83 -13 3 -34
21 -47 40 -16 24 -29 33 -41 30 -10 -2 -37 8 -61 24 -23 16 -54 32 -69 35
l-28 7 3 -63z"/>
<path d="M1880 1395 c0 -9 -11 -20 -25 -25 -14 -5 -25 -14 -25 -20 0 -16 38
-12 60 7 23 20 27 53 5 53 -8 0 -15 -7 -15 -15z"/>
<path d="M1553 1333 l-22 -4 20 -35 c10 -19 19 -49 18 -67 0 -30 -1 -31 -11
-9 -17 34 -33 21 -36 -28 -4 -55 6 -64 51 -45 26 11 37 22 39 40 4 33 22 33
26 0 3 -19 9 -25 27 -25 60 0 72 31 30 76 -14 15 -25 34 -25 43 -1 9 -9 26
-19 39 -19 21 -44 25 -98 15z"/>
<path d="M1270 1300 c0 -5 8 -19 17 -30 14 -16 30 -20 81 -20 46 0 63 3 60 13
-3 7 -28 13 -64 15 -38 2 -62 8 -67 18 -9 16 -27 19 -27 4z"/>
<path d="M1409 1153 c-13 -3 -15 -14 -13 -51 2 -26 10 -52 18 -58 9 -6 13 -19
9 -32 -9 -36 5 -67 48 -111 l41 -41 33 20 c18 11 45 20 61 20 22 0 25 3 16 12
-18 18 -15 68 3 68 10 0 15 -11 15 -35 0 -24 5 -35 15 -35 8 0 15 -4 15 -10 0
-15 19 -12 48 9 15 10 40 19 55 19 40 -1 69 32 71 78 0 21 -4 39 -11 41 -8 3
-13 -4 -13 -16 0 -33 -20 -35 -26 -2 -7 33 -30 41 -52 19 -14 -14 -16 -48 -3
-48 12 0 24 -37 16 -50 -4 -6 -13 -5 -26 3 -17 10 -22 9 -31 -7 -8 -15 -12
-16 -19 -5 -15 25 -10 39 16 39 22 0 37 18 18 21 -49 7 -129 6 -139 -2 -8 -7
-14 -7 -19 1 -10 17 -65 12 -65 -6 0 -22 -24 -12 -28 12 -2 10 -11 24 -19 31
-23 18 -9 47 16 34 13 -8 22 -7 29 2 11 14 5 33 -23 65 -19 22 -25 24 -56 15z
m149 -197 c2 -10 -1 -23 -8 -30 -8 -8 -16 -5 -30 14 -10 13 -16 28 -13 33 9
15 48 2 51 -17z"/>
<path d="M1586 1093 c-11 -11 -6 -23 9 -23 8 0 15 4 15 9 0 13 -16 22 -24 14z"/>
<path d="M1460 2269 c0 -38 24 -35 28 4 2 19 -1 27 -12 27 -11 0 -16 -10 -16
-31z"/>
<path d="M1495 2208 c-4 -10 -4 -26 0 -35 8 -17 8 -17 12 0 3 9 3 25 0 35 -4
16 -4 16 -12 0z"/>
<path d="M1557 1864 c-11 -11 -8 -44 3 -44 15 0 24 30 13 41 -5 5 -12 6 -16 3z"/>
<path d="M1530 1771 c0 -22 25 -39 38 -27 8 8 -10 38 -26 44 -7 2 -12 -6 -12
-17z"/>
<path d="M673 593 c-7 -2 -13 -9 -13 -14 0 -9 43 -111 60 -141 6 -10 10 -27
10 -38 0 -11 7 -23 15 -27 20 -7 55 24 55 50 0 25 32 78 45 74 5 -2 11 -12 13
-23 2 -10 11 -38 19 -62 18 -48 39 -53 60 -12 26 51 53 119 53 134 0 8 5 18
10 21 6 3 10 13 10 21 0 18 -49 19 -54 2 -27 -95 -56 -132 -64 -82 -2 10 -7
28 -12 39 -4 11 -11 28 -14 38 -13 41 -65 6 -66 -45 0 -16 -9 -33 -22 -43 -22
-15 -23 -15 -32 17 -15 59 -38 99 -56 97 -3 0 -11 -3 -17 -6z"/>
<path d="M1094 590 c-19 -8 -21 -16 -21 -109 -1 -98 0 -101 23 -107 39 -10 44
2 44 105 0 106 -8 125 -46 111z"/>
<path d="M1240 588 c-12 -5 -17 -13 -14 -23 5 -11 21 -15 60 -15 39 0 54 -4
54 -13 0 -8 -29 -42 -65 -77 -36 -34 -64 -67 -62 -73 4 -13 206 -20 226 -8 8
5 11 16 7 26 -5 15 -16 17 -66 12 -33 -3 -62 -2 -65 2 -2 4 28 40 67 80 42 42
68 75 62 80 -11 11 -179 18 -204 9z"/>
<path d="M1551 489 c-34 -55 -59 -105 -56 -110 10 -15 43 -10 57 9 9 14 31 20
75 24 56 5 63 4 83 -19 11 -13 29 -23 38 -21 25 5 26 41 2 63 -11 10 -20 22
-20 28 0 5 -13 28 -28 51 -15 22 -31 49 -35 59 -4 10 -17 17 -31 17 -21 0 -35
-17 -85 -101z m105 16 c20 -30 5 -56 -27 -48 -27 7 -31 17 -19 47 12 33 25 33
46 1z"/>
<path d="M1848 493 c-4 -107 4 -130 42 -118 18 6 21 12 17 35 -13 60 28 57 92
-7 24 -25 40 -33 59 -31 29 3 45 38 18 38 -15 0 -46 26 -46 39 0 3 14 12 30
18 25 9 30 17 30 45 0 18 -7 44 -16 56 -14 20 -23 22 -119 22 l-104 0 -3 -97z
m177 27 c0 -23 -4 -25 -50 -28 -60 -3 -80 7 -70 37 6 20 13 22 63 19 53 -3 57
-5 57 -28z"/>
<path d="M2178 493 c-2 -54 1 -104 6 -110 6 -9 37 -13 96 -13 80 0 91 2 119
26 52 44 54 122 3 169 -25 23 -34 25 -124 25 l-97 0 -3 -97z m177 41 c18 -11
25 -25 25 -47 0 -48 -24 -67 -87 -67 l-53 0 0 58 c0 32 3 62 7 65 12 13 84 7
108 -9z"/>
<path d="M834 288 c-12 -20 -10 -139 3 -150 7 -5 22 -7 33 -3 17 5 20 12 16
31 -5 19 -2 25 18 30 43 10 71 1 71 -23 1 -29 17 -45 38 -38 12 5 15 22 15 81
-1 64 -4 74 -21 80 -23 7 -37 -10 -37 -45 0 -17 -4 -22 -16 -17 -9 3 -27 6
-40 6 -17 0 -24 6 -24 20 0 10 -9 24 -19 30 -25 13 -28 13 -37 -2z"/>
<path d="M1100 285 c-17 -20 -9 -133 11 -146 21 -13 153 -11 167 3 7 7 12 39
12 73 0 34 -5 66 -12 73 -18 18 -162 16 -178 -3z m145 -64 c-1 -43 -20 -56
-68 -47 -34 6 -37 10 -37 40 0 43 6 47 60 44 44 -3 45 -4 45 -37z"/>
<path d="M1372 288 c-17 -17 -16 -132 2 -147 9 -7 41 -11 83 -9 l68 3 3 33 c3
26 0 32 -16 32 -11 0 -25 -6 -31 -14 -7 -8 -26 -13 -44 -13 -30 2 -32 4 -32
42 0 38 2 40 33 43 20 2 41 -3 51 -12 22 -20 44 -6 39 25 -3 22 -8 24 -73 27
-46 2 -74 -1 -83 -10z"/>
<path d="M1608 283 c-2 -10 -4 -47 -3 -83 0 -58 2 -65 20 -65 14 0 21 8 23 28
4 34 10 34 52 -3 39 -32 62 -37 79 -16 9 11 3 19 -34 41 -52 30 -53 44 -7 64
20 9 32 21 30 30 -5 28 -42 23 -78 -9 l-35 -31 -5 28 c-6 32 -36 44 -42 16z"/>
<path d="M1852 288 c-17 -17 -16 -133 2 -147 9 -7 41 -11 83 -9 60 3 68 5 68
23 0 18 -6 20 -57 17 -46 -2 -58 0 -58 12 0 8 11 16 25 18 14 2 26 8 26 13 0
6 -12 11 -26 13 -15 2 -25 10 -25 19 0 13 9 15 50 11 36 -4 53 -1 62 9 9 11 9
17 -3 24 -21 13 -133 11 -147 -3z"/>
<path d="M2053 284 c-4 -10 5 -26 25 -44 22 -20 32 -38 34 -66 2 -31 7 -39 23
-39 16 0 21 8 23 39 3 29 12 46 37 69 34 30 37 57 6 57 -9 0 -27 -12 -40 -26
l-24 -25 -27 26 c-30 29 -48 32 -57 9z"/>
</g>
</svg>
