<?xml version="1.0" standalone="no"?>
<!DOCTYPE svg PUBLIC "-//W3C//DTD SVG 20010904//EN"
 "http://www.w3.org/TR/2001/REC-SVG-20010904/DTD/svg10.dtd">
<svg version="1.0" xmlns="http://www.w3.org/2000/svg"
 width="175.000000pt" height="150.000000pt" viewBox="0 0 212.000000 128.000000"
 preserveAspectRatio="xMidYMid meet">
<metadata>
Created by potrace 1.10, written by Peter Selinger 2001-2011
</metadata>
<g transform="translate(0.000000,128.000000) scale(0.050000,-0.050000)"
fill="#000000" stroke="none">
<path d="M360 1997 c-30 -40 -34 -40 -110 -8 -99 41 -170 13 -171 -67 -1 -152
2 -322 7 -402 4 -61 -8 -116 -35 -170 -63 -124 -57 -331 14 -468 30 -58 55
-127 55 -153 0 -30 25 -66 70 -100 40 -31 70 -72 71 -96 0 -24 56 -103 125
-178 150 -162 194 -171 313 -63 l80 71 1485 -5 c1535 -6 1572 -4 1579 73 1 16
3 40 5 54 2 14 -18 79 -44 145 -26 66 -49 129 -52 140 -2 11 -21 70 -42 130
-21 61 -40 115 -41 120 -1 6 -8 24 -15 40 -7 17 -46 134 -87 260 -125 391 16
357 -1497 351 -1453 -7 -1290 1 -1361 -60 -58 -50 -89 -50 -89 0 0 16 -9 29
-20 29 -11 0 -20 18 -20 41 0 56 -57 163 -80 149 -23 -15 -53 42 -70 135 -16
85 -28 90 -70 32z m-95 -73 c7 21 15 21 42 -1 26 -22 39 -23 63 -3 24 20 33
10 54 -68 13 -51 31 -92 40 -92 9 0 16 -19 16 -42 0 -29 9 -39 30 -31 20 8 30
-1 30 -26 0 -21 8 -44 18 -50 10 -6 11 -43 1 -86 -24 -110 -29 -212 -13 -239
8 -13 5 -29 -7 -36 -14 -10 -14 -22 2 -42 16 -18 17 -28 3 -28 -12 0 -38 -27
-57 -60 -20 -33 -42 -60 -50 -60 -28 0 -42 253 -17 301 21 39 20 43 -8 33 -31
-12 -41 6 -33 61 1 14 -11 31 -28 37 -17 7 -32 36 -34 65 -2 50 -3 50 -11 6
-8 -42 -14 -37 -53 40 -39 79 -44 82 -49 37 -11 -90 -24 -115 -43 -80 -36 68
-42 202 -11 245 16 24 30 70 30 103 0 56 2 57 38 24 29 -27 40 -28 47 -8z
m3253 -879 c103 -301 183 -551 177 -556 -13 -13 -2933 -24 -2946 -11 -5 5 6
25 24 45 27 30 29 47 11 86 -20 43 -16 54 32 88 45 33 54 56 56 136 1 54 8
144 17 201 21 150 -28 304 -134 420 -142 153 -198 147 1284 141 l1291 -5 188
-545z m-3278 429 c0 -14 11 -37 25 -51 14 -14 26 -31 27 -39 1 -8 6 -27 12
-44 28 -75 56 -199 56 -245 0 -68 135 -111 170 -55 7 12 21 15 32 9 38 -24
102 13 92 53 -6 21 -4 38 3 38 22 0 13 174 -11 203 -12 15 -17 57 -11 93 l10
67 59 -57 c108 -102 177 -282 128 -331 -20 -20 -26 -65 -22 -147 10 -172 -3
-208 -71 -208 -33 0 -75 -18 -98 -44 -54 -58 -33 -74 25 -19 63 58 81 54 68
-14 -7 -31 -3 -66 8 -77 12 -12 5 -37 -21 -71 -23 -28 -41 -61 -41 -73 0 -43
-81 -102 -139 -102 -67 0 -254 163 -231 200 8 12 3 34 -10 50 -13 16 -17 39
-8 53 10 16 5 20 -16 12 -47 -18 -91 51 -117 182 -15 74 -32 117 -46 111 -42
-16 -75 142 -53 244 39 172 180 378 180 262z"/>
<path d="M221 1746 c1 -71 54 -142 71 -97 9 24 6 42 -8 46 -13 5 -24 21 -24
35 0 15 -9 33 -20 40 -11 7 -20 -4 -19 -24z"/>
<path d="M897 1530 c-6 -6 5 -93 24 -195 19 -102 41 -219 48 -261 23 -134 159
-104 167 36 6 93 4 97 -24 60 -46 -60 -38 -24 16 78 51 97 72 87 72 -35 1
-168 20 -213 93 -213 38 0 71 11 75 25 11 35 88 484 85 488 -2 2 -28 10 -58
17 -66 17 -68 12 -85 -195 -8 -85 -22 -155 -33 -155 -11 0 -15 7 -11 15 5 8
-1 87 -13 175 -23 159 -23 160 -83 160 l-60 0 -17 -165 c-17 -169 -53 -208
-53 -59 -1 201 -66 302 -143 224z"/>
<path d="M1500 1312 l0 -228 61 -21 c79 -28 82 -20 75 246 l-6 217 -65 7 -65
7 0 -228z"/>
<path d="M1700 1482 c0 -58 5 -62 70 -62 86 0 86 3 -11 -180 -108 -204 -109
-200 66 -231 86 -15 91 -3 35 81 -46 70 -50 93 -13 79 33 -13 104 137 82 173
-24 38 -25 124 -3 153 14 19 0 25 -59 25 -42 0 -97 6 -122 13 -40 10 -45 4
-45 -51z"/>
<path d="M1968 1511 c-15 -38 3 -91 31 -91 27 0 27 94 1 110 -11 7 -26 -2 -32
-19z"/>
<path d="M2152 1509 c-6 -18 -12 -81 -12 -140 0 -83 -6 -105 -27 -97 -20 7
-32 -15 -41 -76 -8 -47 -19 -105 -24 -128 -7 -26 -1 -42 16 -43 14 -1 47 -9
74 -17 36 -11 45 -7 38 14 -5 15 -22 28 -38 29 -15 0 -25 14 -20 30 4 16 13
56 21 89 l13 60 23 -65 c18 -50 35 -65 73 -65 36 0 51 -12 56 -45 4 -29 22
-47 52 -52 93 -13 101 3 67 133 -20 76 -40 116 -55 110 -40 -15 -54 34 -20 72
40 44 8 162 -45 162 -29 1 -29 3 -3 20 24 16 21 19 -15 20 -25 0 -45 -9 -45
-20 0 -11 -9 -20 -20 -20 -11 0 -18 10 -15 23 8 36 -39 42 -53 6z m156 -97
c-6 -15 -17 -72 -25 -125 -9 -66 -23 -97 -43 -97 -40 0 -28 166 15 215 37 42
68 46 53 7z"/>
<path d="M2500 1485 c1 -28 4 -29 18 -8 14 23 21 22 36 -6 10 -18 44 -35 75
-37 76 -6 112 -62 68 -106 -39 -38 -77 -22 -77 33 0 25 -14 39 -38 39 -21 0
-43 11 -48 25 -7 20 -15 20 -36 -1 -23 -22 -23 -29 2 -45 19 -12 23 -25 10
-34 -11 -8 -19 -87 -19 -175 l2 -160 68 0 c51 0 67 8 62 30 -29 128 -3 202 58
164 32 -20 39 -19 39 7 0 26 10 25 60 -11 65 -46 91 -10 29 40 -27 23 -27 29
0 59 40 44 40 150 0 190 -48 48 -309 45 -309 -4z"/>
<path d="M2920 1258 l0 -263 142 9 c190 10 218 42 218 250 0 233 -27 265 -225
266 l-135 0 0 -262z m196 165 c43 -27 24 -311 -21 -319 -31 -6 -35 12 -35 165
0 170 6 186 56 154z"/>
<path d="M2704 1085 c6 -71 10 -75 82 -81 73 -6 75 -5 62 50 -32 133 -155 160
-144 31z"/>
<path d="M1933 1060 c36 -72 58 -76 74 -15 19 71 17 75 -45 75 -59 0 -59 0
-29 -60z"/>
<path d="M1500 1030 c0 -20 19 -30 55 -29 53 0 53 2 16 30 -49 37 -71 37 -71
-1z"/>
<path d="M1467 920 c-113 -46 -147 -241 -58 -331 104 -104 312 -45 339 97 32
173 -119 300 -281 234z m149 -104 c52 -52 13 -196 -53 -196 -68 0 -121 155
-70 207 22 21 97 15 123 -11z"/>
<path d="M1935 926 c-19 -5 -35 -19 -35 -31 0 -12 -6 -16 -13 -8 -26 25 -61
-58 -64 -153 -5 -130 56 -194 185 -194 132 0 235 119 128 147 -30 8 -52 -1
-72 -30 -19 -27 -42 -37 -70 -30 -23 6 -56 0 -73 -13 -27 -21 -28 -20 -4 11
16 20 23 58 17 90 -19 102 65 169 124 98 26 -32 122 -20 122 16 0 62 -151 122
-245 97z"/>
<path d="M2262 737 l1 -197 57 0 c51 0 57 7 53 55 -3 42 -15 55 -47 54 -27 -1
-38 8 -32 25 11 29 86 36 86 8 0 -10 16 -14 35 -10 24 6 44 -11 65 -57 25 -55
42 -66 108 -71 l78 -7 -51 87 c-43 73 -62 87 -123 92 -40 4 -72 14 -72 23 0
22 59 44 82 30 10 -6 18 -4 18 5 0 9 27 45 60 80 67 71 60 86 -35 71 -42 -6
-80 -30 -107 -67 -52 -74 -80 -74 -66 -1 11 53 6 59 -50 67 l-62 9 2 -196z"/>
<path d="M2740 921 c-22 -15 -2 -21 80 -24 l110 -4 -110 -11 -110 -12 0 -160
1 -160 164 -5 c164 -4 165 -4 165 45 0 57 -112 75 -132 22 -9 -24 -17 -24 -50
4 -77 67 -39 97 107 86 44 -4 55 4 55 37 0 46 -69 59 -87 16 -8 -20 -10 -20
-11 0 -1 14 -24 25 -52 25 -31 0 -50 11 -50 30 0 23 26 30 110 30 97 0 110 5
110 40 0 31 -13 41 -55 40 -30 0 -91 5 -135 11 -44 6 -93 1 -110 -10z"/>
<path d="M3080 927 c0 -10 32 -64 70 -121 50 -75 70 -126 70 -182 0 -73 4 -77
60 -77 57 0 60 4 60 79 0 59 18 105 70 177 86 119 87 137 10 137 -50 0 -67
-13 -94 -70 -41 -86 -54 -87 -86 -10 -15 35 -40 60 -61 60 -20 0 -50 5 -67 12
-18 7 -32 4 -32 -5z"/>
<path d="M908 730 l-2 -190 69 0 69 0 -14 80 -14 80 72 0 c71 0 72 -2 72 -80
0 -76 3 -80 60 -80 l60 0 0 190 0 190 -60 0 c-55 0 -60 -5 -60 -71 0 -69 -3
-71 -65 -65 -60 6 -65 11 -60 71 5 61 1 65 -60 65 l-65 0 -2 -190z"/>
<path d="M633 975 c-40 -46 -73 -101 -73 -122 0 -29 -6 -33 -26 -16 -14 12
-44 17 -65 11 -24 -6 -58 8 -88 35 -27 25 -62 48 -77 50 -16 2 -39 14 -51 26
-34 34 -53 25 -53 -26 0 -83 184 -181 238 -127 16 16 22 13 22 -12 0 -19 -9
-34 -20 -34 -28 0 -25 -54 3 -72 13 -8 34 0 47 18 18 25 29 27 47 9 34 -34 78
13 47 50 -12 15 -15 38 -5 53 10 17 20 19 29 5 14 -22 132 33 132 62 0 23 -20
18 -53 -15 -16 -16 -39 -30 -50 -30 -11 0 8 23 41 52 60 50 83 133 45 156 -10
6 -50 -27 -90 -73z"/>
<path d="M336 689 c-37 -37 72 -243 112 -212 12 10 62 23 111 29 52 7 100 26
115 46 31 42 34 75 6 58 -11 -7 -20 -3 -20 8 0 11 -14 15 -31 9 -19 -7 -26
-26 -18 -49 9 -29 2 -38 -30 -38 -22 0 -41 8 -41 18 0 9 -27 21 -60 26 -33 5
-60 2 -60 -7 0 -10 9 -17 20 -17 11 0 20 -11 19 -25 0 -14 -24 2 -53 35 -43
49 -47 61 -20 66 18 4 27 19 21 35 -11 29 -51 39 -71 18z"/>
</g>
</svg>
