<?xml version="1.0" standalone="no"?>
<!DOCTYPE svg PUBLIC "-//W3C//DTD SVG 20010904//EN"
 "http://www.w3.org/TR/2001/REC-SVG-20010904/DTD/svg10.dtd">
<svg version="1.0" xmlns="http://www.w3.org/2000/svg"
 width="200.000000pt" height="200.000000pt" viewBox="0 0 200.000000 200.000000"
 preserveAspectRatio="xMidYMid meet">
<metadata>
Created by potrace 1.10, written by Peter Selinger 2001-2011
</metadata>
<g transform="translate(0.000000,200.000000) scale(0.100000,-0.100000)"
fill="#e70808" stroke="none">
<path d="M873 1950 c-211 -30 -400 -124 -549 -274 -130 -130 -197 -243 -250
-421 -25 -81 -27 -106 -28 -250 0 -166 8 -215 55 -343 107 -292 368 -520 687
-599 104 -26 322 -23 437 5 395 98 685 435 725 840 46 474 -262 906 -728 1022
-91 23 -261 32 -349 20z m249 -25 c62 -8 140 -24 173 -36 82 -29 220 -103 275
-147 53 -44 170 -162 170 -172 0 -4 16 -27 34 -51 19 -24 33 -45 31 -48 -3 -2
1 -9 8 -15 25 -21 77 -156 94 -243 18 -95 26 -329 12 -372 -4 -14 -13 -46 -19
-71 -31 -122 -79 -234 -121 -279 -10 -11 -19 -24 -19 -30 0 -16 -151 -171
-161 -165 -5 3 -9 -1 -9 -8 0 -8 -15 -22 -32 -33 -18 -10 -37 -24 -43 -31 -16
-20 -161 -94 -184 -94 -12 0 -21 -3 -21 -8 0 -7 -129 -39 -205 -49 -38 -5
-132 -7 -200 -4 -16 1 -65 11 -109 21 -43 11 -85 20 -93 20 -24 0 -196 90
-250 131 -120 93 -223 209 -268 304 -16 33 -32 62 -35 65 -13 10 -52 120 -55
155 -2 19 -9 52 -16 73 -17 49 -17 281 0 352 15 64 49 166 64 195 6 11 10 23
9 28 -1 4 2 7 7 7 5 0 14 15 22 33 18 46 75 128 82 120 4 -3 7 0 7 8 0 8 8 22
17 31 10 9 32 32 49 50 44 47 96 87 173 134 64 40 200 99 251 110 93 19 141
26 227 32 12 1 73 -5 135 -13z"/>
<path d="M950 1637 c-3 -3 -31 -8 -64 -12 -143 -16 -303 -113 -395 -239 -110
-151 -151 -352 -109 -541 12 -54 83 -215 96 -215 4 0 18 -18 32 -40 14 -22 27
-40 30 -40 4 0 15 -8 26 -18 10 -10 37 -31 59 -47 22 -17 43 -34 46 -38 3 -5
9 -8 13 -8 3 1 22 -6 42 -14 20 -8 40 -15 45 -15 5 0 9 -4 9 -9 0 -14 136 -34
228 -34 80 1 217 22 207 32 -3 2 11 10 30 17 111 38 233 143 297 257 12 20 26
37 30 37 5 0 7 4 3 10 -3 5 -2 17 3 27 39 75 51 135 52 244 0 47 -5 112 -11
145 -7 32 -12 64 -12 71 0 7 -3 10 -7 8 -3 -2 -12 13 -20 33 -14 39 -62 122
-95 162 -81 101 -176 160 -335 208 -39 12 -192 27 -200 19z m139 -28 c334 -54
561 -353 520 -685 -30 -239 -186 -429 -421 -511 -62 -22 -91 -26 -188 -26
-101 -1 -125 2 -195 27 -270 94 -438 340 -422 622 20 361 353 631 706 573z"/>
<path d="M874 1535 c-34 -7 -85 -25 -115 -40 -59 -30 -143 -94 -135 -103 3 -2
13 1 22 9 15 12 17 12 12 -1 -3 -8 -16 -15 -30 -15 -43 0 -113 -100 -153 -219
-76 -226 14 -488 212 -619 97 -63 171 -88 278 -94 169 -9 299 40 421 162 217
215 217 555 0 770 -83 82 -145 118 -252 145 -88 23 -172 24 -260 5z m66 -9 c0
-2 -7 -7 -16 -10 -8 -3 -12 -2 -9 4 6 10 25 14 25 6z m107 -2 c-3 -3 -12 -4
-19 -1 -8 3 -5 6 6 6 11 1 17 -2 13 -5z m58 -4 c13 -5 14 -9 5 -9 -8 0 -24 4
-35 9 -13 5 -14 9 -5 9 8 0 24 -4 35 -9z m26 -36 c315 -92 461 -437 308 -725
-136 -255 -470 -339 -715 -181 -119 77 -203 208 -225 352 -37 239 128 491 362
554 73 20 203 20 270 0z m-324 0 c-3 -3 -12 -4 -19 -1 -8 3 -5 6 6 6 11 1 17
-2 13 -5z m459 -25 c8 -14 -10 -11 -32 6 -18 13 -18 14 4 8 12 -3 25 -9 28
-14z m-506 6 c0 -2 -10 -10 -22 -16 -21 -11 -22 -11 -9 4 13 16 31 23 31 12z
m-51 -28 c-2 -1 -13 -9 -24 -17 -19 -14 -19 -14 -6 3 7 9 18 17 24 17 6 0 8
-1 6 -3z m610 -16 c13 -11 28 -22 34 -24 7 -2 8 -8 4 -13 -4 -4 -22 6 -40 24
-35 35 -33 44 2 13z m-759 -129 c0 -5 -7 -17 -15 -28 -14 -18 -14 -17 -4 9 12
27 19 34 19 19z m-39 -79 c-8 -15 -10 -15 -11 -2 0 17 10 32 18 25 2 -3 -1
-13 -7 -23z m968 -18 c0 -5 -4 -3 -9 5 -5 8 -9 22 -9 30 0 16 17 -16 18 -35z
m-988 -32 c-12 -20 -14 -14 -5 12 4 9 9 14 11 11 3 -2 0 -13 -6 -23z m1008
-16 c0 -21 -1 -21 -9 -2 -12 28 -12 37 0 30 6 -3 10 -16 9 -28z m8 -64 c-3
-10 -5 -4 -5 12 0 17 2 24 5 18 2 -7 2 -21 0 -30z m4 -168 l-11 -40 5 40 c3
22 6 65 7 95 l2 55 3 -55 c2 -30 -1 -73 -6 -95z m-1036 -14 c3 -5 1 -12 -5
-16 -5 -3 -10 1 -10 9 0 18 6 21 15 7z m1021 -67 c-4 -14 -9 -24 -12 -21 -3 2
-2 17 2 31 3 15 9 25 11 22 3 -3 2 -17 -1 -32z m-983 -54 c3 -11 1 -18 -4 -14
-5 3 -9 12 -9 20 0 20 7 17 13 -6z m257 -260 c0 -5 -2 -10 -4 -10 -3 0 -8 5
-11 10 -3 6 -1 10 4 10 6 0 11 -4 11 -10z m460 6 c0 -2 -7 -7 -16 -10 -8 -3
-12 -2 -9 4 6 10 25 14 25 6z m-400 -26 c13 -9 13 -10 0 -10 -8 0 -22 5 -30
10 -13 9 -13 10 0 10 8 0 22 -5 30 -10z m340 0 c-8 -5 -22 -9 -30 -9 -10 0 -8
3 5 9 27 12 43 12 25 0z m-283 -16 c-3 -3 -12 -4 -19 -1 -8 3 -5 6 6 6 11 1
17 -2 13 -5z m223 2 c0 -2 -7 -6 -15 -10 -8 -3 -15 -1 -15 4 0 6 7 10 15 10 8
0 15 -2 15 -4z m-147 -13 c-13 -2 -33 -2 -45 0 -13 2 -3 4 22 4 25 0 35 -2 23
-4z m95 0 c-10 -2 -28 -2 -40 0 -13 2 -5 4 17 4 22 1 32 -1 23 -4z"/>
<path d="M978 1186 c-21 -25 -51 -50 -68 -58 -27 -11 -30 -18 -30 -56 l0 -43
50 27 c28 15 50 31 50 36 0 4 3 8 8 8 4 0 6 -74 4 -165 l-3 -165 45 0 46 0 0
230 0 230 -32 0 c-26 -1 -41 -10 -70 -44z m72 -186 c0 -170 -2 -200 -15 -200
-12 0 -15 26 -17 151 -3 127 -6 154 -19 162 -12 8 -24 5 -47 -11 -16 -12 -33
-22 -37 -22 -10 0 117 119 128 120 4 0 7 -90 7 -200z"/>
</g>
</svg>
