<?xml version="1.0" standalone="no"?>
<!DOCTYPE svg PUBLIC "-//W3C//DTD SVG 20010904//EN"
 "http://www.w3.org/TR/2001/REC-SVG-20010904/DTD/svg10.dtd">
<svg version="1.0" xmlns="http://www.w3.org/2000/svg"
 width="600.000000pt" height="576.000000pt" viewBox="0 0 600.000000 576.000000"
 preserveAspectRatio="xMidYMid meet">
<metadata>
Created by potrace 1.10, written by Peter Selinger 2001-2011
</metadata>
<g transform="translate(0.000000,576.000000) scale(0.100000,-0.100000)"
fill="#df1a1a" stroke="none">
<path d="M2903 5428 c-13 -6 -23 -16 -23 -23 0 -19 -34 -45 -59 -45 -12 0 -35
-7 -50 -15 -22 -11 -37 -12 -64 -4 -54 15 -134 -23 -97 -46 32 -20 -7 -69 -46
-59 -15 4 -34 -10 -73 -51 -51 -54 -52 -56 -37 -80 9 -13 16 -27 16 -30 0 -10
-28 -5 -32 6 -2 6 -12 7 -27 1 -20 -7 -21 -10 -8 -15 23 -9 21 -24 -3 -37 -28
-15 -70 -2 -80 26 -12 31 -31 30 -59 0 -13 -14 -40 -28 -63 -31 -22 -4 -42
-13 -45 -21 -3 -8 -18 -14 -33 -14 -21 0 -33 -8 -49 -35 -13 -22 -28 -35 -41
-35 -11 0 -20 4 -20 9 0 18 -34 21 -58 5 -19 -13 -22 -18 -11 -25 8 -5 26 -9
40 -9 34 0 47 -29 23 -47 -10 -7 -25 -11 -35 -8 -22 7 -49 -4 -49 -21 0 -8 9
-13 21 -11 36 4 33 -22 -5 -58 -20 -18 -36 -43 -36 -54 0 -12 -5 -21 -11 -21
-10 0 -9 16 8 88 4 19 1 22 -22 22 -24 0 -26 3 -23 32 2 24 12 38 37 55 27 19
30 23 14 23 -12 0 -34 -7 -49 -15 -35 -18 -56 -19 -72 -3 -9 9 -13 7 -18 -6
-4 -10 -17 -21 -29 -26 -16 -6 -25 -20 -30 -47 -10 -57 -31 -75 -77 -68 -37 7
-38 5 -44 -24 -5 -23 -13 -33 -33 -37 -41 -8 -54 -18 -83 -61 -38 -55 -61
-120 -62 -173 -1 -40 -4 -45 -25 -48 -13 -2 -34 2 -47 8 -30 17 -50 8 -57 -26
-7 -39 0 -52 44 -74 21 -11 41 -25 44 -30 11 -18 -26 -50 -64 -56 -20 -3 -43
-11 -52 -17 -21 -17 -59 -81 -59 -101 0 -11 -20 -26 -53 -42 -30 -13 -62 -32
-71 -43 -15 -16 -15 -19 -1 -31 29 -24 13 -169 -22 -189 -12 -6 -21 -3 -34 13
l-17 21 -7 -27 c-4 -17 -1 -35 9 -50 12 -18 16 -52 17 -133 1 -107 1 -109 30
-134 23 -20 29 -34 29 -64 0 -50 -23 -93 -60 -112 -40 -21 -60 -53 -60 -98 0
-36 -3 -40 -40 -54 -42 -17 -52 -38 -22 -47 16 -6 92 -124 92 -144 0 -5 9 -17
21 -28 12 -10 32 -40 45 -66 24 -47 24 -48 4 -48 -29 0 -25 -25 15 -86 61 -92
131 -161 171 -168 41 -8 53 -29 30 -55 -22 -25 -20 -74 4 -96 25 -22 38 -12
44 33 4 39 13 51 22 28 10 -25 53 -20 63 8 10 24 29 36 61 36 19 0 30 -19 30
-51 0 -12 7 -19 19 -19 32 0 46 -26 28 -53 -18 -28 -16 -149 4 -173 12 -14 31
-14 73 2 14 5 16 -5 16 -73 0 -44 -5 -105 -11 -137 -10 -57 -10 -59 23 -107
32 -47 58 -66 76 -55 16 10 35 121 34 201 0 79 -20 155 -40 155 -23 0 -48 106
-30 128 18 21 17 281 -1 382 -10 51 -14 173 -15 375 -1 224 -4 306 -14 323
-13 23 -2 90 33 198 8 23 13 56 13 74 -1 20 16 67 44 124 25 50 54 118 64 151
35 114 92 221 162 298 127 140 222 202 310 200 34 -1 77 7 115 21 44 16 79 22
120 20 74 -3 89 -15 74 -54 -15 -39 1 -70 49 -95 22 -10 47 -26 57 -34 11 -9
37 -15 68 -14 46 1 52 -2 89 -44 l39 -44 103 -4 c121 -5 153 -11 190 -38 25
-18 32 -19 100 -8 106 17 158 -5 158 -68 0 -12 16 -30 45 -48 53 -34 61 -52
40 -93 -9 -17 -14 -34 -11 -39 3 -4 -1 -17 -9 -27 -8 -10 -15 -31 -15 -45 0
-31 -27 -101 -44 -112 -8 -5 -6 -11 7 -18 9 -5 17 -21 17 -34 0 -13 12 -37 26
-54 24 -28 28 -71 5 -57 -4 3 -16 -3 -26 -14 -18 -20 -17 -20 23 -20 53 0 72
-8 82 -34 11 -29 -12 -156 -33 -186 -20 -29 -22 -71 -4 -89 10 -10 7 -16 -12
-29 -13 -10 -35 -28 -49 -41 -30 -28 -108 -51 -175 -51 -47 0 -49 -1 -67 -43
-26 -59 -44 -72 -125 -92 -74 -19 -145 -50 -145 -64 0 -5 24 -19 54 -31 88
-35 92 -43 78 -158 -16 -125 -15 -153 4 -237 44 -195 28 -245 -106 -319 -28
-16 -58 -20 -153 -22 -132 -3 -171 -17 -165 -57 3 -20 8 -22 63 -19 95 4 141
-6 188 -42 35 -27 49 -31 84 -28 37 3 45 0 81 -35 41 -40 102 -144 102 -173 0
-26 -41 -57 -85 -65 -53 -9 -88 -32 -80 -52 3 -9 0 -20 -7 -25 -21 -13 -142
-10 -156 4 -13 13 -179 17 -307 8 -27 -2 -74 0 -104 5 -47 7 -56 6 -67 -10
-27 -37 -18 -45 50 -45 42 0 86 -8 132 -25 73 -27 94 -26 94 1 0 30 32 43 106
44 39 0 84 -4 100 -9 16 -5 55 -12 87 -16 39 -4 66 -14 86 -31 25 -20 39 -24
100 -24 68 0 72 -1 81 -26 l10 -25 30 21 c30 21 60 21 60 0 0 -6 -10 -15 -23
-21 -12 -5 -40 -37 -62 -70 -21 -33 -47 -67 -57 -76 -30 -27 -22 -57 21 -85
27 -18 48 -24 66 -20 17 3 44 -4 71 -18 l45 -22 38 26 c56 39 111 31 111 -16
0 -19 -34 -25 -45 -8 -11 18 -25 0 -25 -34 0 -19 7 -39 15 -46 21 -18 19 -25
-20 -69 -19 -21 -35 -45 -35 -53 0 -8 -13 -30 -30 -48 -17 -18 -30 -38 -30
-42 0 -5 -9 -7 -19 -3 -21 6 -75 -41 -86 -76 -4 -11 -29 -44 -55 -72 -52 -56
-114 -87 -133 -68 -18 18 -41 13 -108 -21 -61 -30 -70 -32 -179 -32 -104 0
-121 3 -173 27 -65 31 -77 33 -77 14 0 -28 41 -59 107 -82 51 -17 69 -27 71
-43 3 -16 -4 -21 -37 -27 -22 -4 -45 -4 -51 0 -6 4 -20 -1 -31 -11 -17 -15
-24 -16 -39 -6 -23 14 -70 16 -70 3 0 -16 57 -51 84 -51 14 0 36 5 50 11 31
14 72 -8 86 -47 8 -20 16 -24 49 -24 54 0 102 -24 129 -66 12 -19 31 -34 42
-34 10 0 22 -4 25 -10 9 -14 56 -12 85 5 14 8 36 14 49 15 33 0 227 58 269 79
9 5 37 17 62 27 45 18 73 35 186 112 62 42 84 51 84 32 0 -20 46 -9 116 26 88
44 159 97 276 205 50 46 120 103 157 127 40 25 70 53 77 70 15 36 27 213 15
231 -7 10 -16 -2 -38 -47 -16 -35 -35 -61 -43 -62 -8 0 -21 -9 -28 -20 -19
-31 -32 -24 -32 19 0 27 8 49 25 69 64 77 126 641 79 722 -17 27 -13 80 5 80
4 0 19 -21 32 -47 15 -30 35 -53 54 -62 17 -8 34 -19 38 -25 14 -19 0 -155
-27 -267 -30 -127 -43 -253 -28 -263 6 -4 22 6 36 21 76 87 146 176 146 187 0
6 11 28 25 48 14 20 25 46 25 57 0 11 5 23 11 27 24 14 49 92 47 144 -2 43 1
55 20 70 12 10 22 22 22 27 0 5 19 52 41 104 23 52 45 108 49 124 13 51 82
238 102 278 10 21 27 40 36 43 9 3 33 12 52 21 33 14 34 16 15 29 -18 14 -18
15 7 41 61 67 98 163 84 218 -8 31 -17 31 -54 0 -37 -31 -42 -31 -42 -1 0 37
18 76 35 76 22 0 19 10 -15 45 -28 29 -29 31 -17 73 8 27 25 53 44 68 22 17
34 38 43 76 12 48 12 53 -8 69 -19 15 -20 18 -6 29 13 11 10 17 -18 41 -18 16
-39 28 -46 29 -7 0 -27 7 -44 16 -26 13 -29 20 -24 45 3 16 15 42 27 59 20 26
21 32 9 60 -13 33 -2 80 20 80 5 0 10 18 10 40 0 31 6 47 26 65 15 14 30 25
34 25 11 0 50 76 50 98 0 11 -8 30 -18 42 -15 19 -22 21 -39 12 -12 -7 -26
-25 -31 -42 -13 -35 -22 -37 -45 -12 -24 27 -21 39 13 45 23 5 34 16 49 49 32
70 33 83 11 103 -11 10 -20 24 -20 30 0 7 -26 41 -59 76 -32 35 -61 74 -65 86
-7 22 -52 43 -91 43 -25 0 -42 33 -44 85 -1 16 -8 33 -16 38 -9 5 -15 23 -15
46 0 34 -4 40 -26 45 -18 5 -32 2 -44 -9 -18 -16 -20 -14 -44 23 -14 22 -34
43 -46 47 -11 3 -22 16 -24 28 -3 12 -8 42 -13 67 -7 42 -10 45 -41 48 -33 3
-34 5 -28 38 7 33 6 34 -24 34 -27 0 -29 2 -21 19 8 14 6 24 -10 42 -16 18
-19 31 -14 61 10 59 -2 95 -36 107 -22 8 -29 16 -29 36 0 20 -4 26 -17 23 -10
-2 -19 -13 -21 -26 -3 -19 -10 -22 -45 -22 -36 0 -46 5 -73 37 l-31 37 -45
-22 c-50 -23 -84 -20 -93 9 -4 12 -16 19 -31 19 -25 0 -28 4 -38 53 -4 15 -12
27 -19 27 -31 0 -48 27 -57 90 -15 97 -19 110 -34 110 -7 0 -21 -9 -31 -20
-23 -26 -29 -25 -59 7 l-24 26 -39 -18 c-21 -10 -46 -24 -56 -33 -16 -14 -19
-13 -42 8 -14 13 -27 32 -31 42 -4 14 -12 18 -26 14 -15 -3 -29 4 -47 23 -22
24 -30 26 -49 18 -19 -9 -27 -6 -47 15 -15 17 -44 31 -77 38 -50 11 -59 10
-147 -20 -119 -40 -151 -36 -182 20 -23 41 -38 46 -76 28z m-720 -473 c-4 -15
-36 -12 -41 3 -3 9 3 13 19 10 13 -1 23 -7 22 -13z m2197 -89 c0 -3 -11 -17
-25 -32 -24 -26 -24 -28 -8 -46 25 -28 4 -44 -36 -27 -43 19 -48 40 -14 66 15
12 33 26 38 32 10 10 45 15 45 7z m-2360 -176 c0 -6 -7 -13 -15 -16 -20 -8
-48 3 -40 16 8 13 55 13 55 0z m-232 -42 c18 -18 14 -38 -7 -38 -20 0 -35 25
-25 41 7 12 18 11 32 -3z m-183 -28 c0 -23 -49 -20 -53 3 -3 15 2 18 25 15 17
-2 28 -9 28 -18z m3375 -629 c15 -29 12 -41 -10 -41 -23 0 -35 22 -26 45 8 21
23 19 36 -4z m-3829 -56 c-1 -15 -24 -12 -29 3 -3 9 2 13 12 10 10 -1 17 -7
17 -13z m3909 -226 c0 -11 -10 -23 -22 -28 -46 -17 -66 15 -27 43 26 18 49 11
49 -15z m-1352 -383 c2 -60 0 -77 -10 -74 -15 5 -34 118 -24 143 3 9 12 15 19
13 8 -3 13 -31 15 -82z m1322 -132 c0 -8 -4 -12 -10 -9 -5 3 -10 13 -10 21 0
8 5 12 10 9 6 -3 10 -13 10 -21z m-1500 -338 c0 -15 -14 -35 -21 -30 -15 9
-10 34 6 34 8 0 15 -2 15 -4z m-68 -58 c19 -35 30 -44 68 -53 l45 -11 -34 -18
c-40 -21 -166 -32 -176 -16 -4 6 3 23 16 36 20 22 22 28 10 45 -10 18 -10 24
5 40 26 28 40 23 66 -23z m63 -214 c90 -33 144 -44 170 -34 34 13 131 13 156
0 26 -15 24 -25 -15 -73 -63 -78 -70 -117 -23 -117 32 0 38 -9 25 -34 -7 -13
-12 -88 -13 -201 -1 -99 -5 -188 -10 -197 -5 -12 -18 -18 -40 -18 -26 0 -46
12 -101 64 -71 65 -103 117 -124 196 -8 27 -25 57 -46 77 -19 17 -34 36 -34
40 0 5 -11 24 -25 43 -21 28 -25 45 -25 99 0 36 -5 86 -11 110 -14 63 -7 75
39 66 20 -4 55 -13 77 -21z m206 -955 l21 -41 29 28 c25 24 31 26 39 14 13
-20 13 -197 0 -205 -5 -3 -10 -18 -10 -33 0 -43 -13 -54 -53 -47 -44 9 -90 54
-85 86 2 19 -2 25 -22 27 -45 7 -60 30 -60 91 0 81 29 121 87 121 28 0 36 -6
54 -41z m-218 -291 c2 -7 -2 -26 -10 -42 -12 -22 -17 -26 -24 -15 -10 17 -12
53 -2 62 11 11 31 8 36 -5z"/>
<path d="M4677 4514 c-10 -10 -9 -44 2 -44 13 0 23 32 13 42 -5 5 -11 5 -15 2z"/>
<path d="M4837 4393 c-8 -7 11 -33 24 -33 5 0 9 9 9 20 0 19 -20 27 -33 13z"/>
<path d="M2241 3087 c-58 -16 -66 -37 -14 -38 54 -1 158 -66 158 -100 0 -32
-51 -57 -135 -66 -53 -5 -70 -12 -96 -37 -18 -17 -40 -37 -48 -44 -9 -7 -16
-26 -16 -42 0 -17 -8 -34 -20 -43 -24 -17 -16 -27 23 -27 30 0 171 62 182 80
13 21 50 10 67 -20 20 -36 51 -44 125 -35 48 6 63 13 90 41 17 19 34 34 37 34
3 0 6 -17 6 -38 0 -21 3 -41 6 -45 12 -11 60 21 89 60 16 21 48 57 72 80 24
23 43 47 43 52 0 5 -26 15 -57 21 -71 14 -154 39 -170 52 -6 5 -14 27 -18 48
-4 21 -12 43 -18 48 -13 9 -186 33 -234 31 -15 0 -48 -6 -72 -12z m189 -271
c0 -18 -26 -40 -34 -27 -9 14 4 41 20 41 8 0 14 -6 14 -14z"/>
<path d="M2038 3059 c-34 -17 -57 -53 -44 -66 3 -4 14 1 24 10 10 10 23 17 29
17 5 0 20 11 32 24 30 32 8 40 -41 15z"/>
<path d="M1260 2270 c0 -11 7 -20 15 -20 17 0 18 2 9 24 -9 23 -24 20 -24 -4z"/>
<path d="M2548 2249 c-38 -28 -203 -229 -260 -314 -45 -69 -79 -178 -64 -204
12 -19 36 -12 45 13 5 13 60 83 121 157 111 134 180 249 180 304 0 13 5 27 10
30 12 7 14 35 3 35 -5 0 -20 -10 -35 -21z"/>
<path d="M1678 1656 c-41 -36 -46 -56 -23 -96 29 -50 15 -80 -36 -80 -32 0
-21 -19 13 -22 25 -2 34 -9 38 -28 4 -18 15 -26 38 -31 18 -4 41 -18 53 -33
21 -26 43 -32 66 -18 9 6 4 40 -22 140 -40 153 -59 202 -77 202 -7 -1 -30 -16
-50 -34z"/>
<path d="M2354 699 c-10 -17 13 -36 27 -22 12 12 4 33 -11 33 -5 0 -12 -5 -16
-11z"/>
</g>
</svg>
